<svg width="64" height="63" viewBox="0 0 64 63" fill="none" xmlns="http://www.w3.org/2000/svg">
<g clip-path="url(#clip0_524_1102)">
<path d="M20.7275 21.0669C19.8877 21.2329 19.1748 21.9556 19.0137 22.8149C18.9844 22.9858 18.9648 25.2954 18.9648 29.3677V35.6616H21.1865H23.4082V34.4897C23.4082 33.4058 23.418 33.2983 23.5059 33.1226C23.6719 32.8003 23.8721 32.7319 24.6289 32.7319H25.2637L25.3857 32.4585C25.4541 32.3071 25.5078 32.1558 25.5078 32.1265C25.5078 32.0972 25.3174 31.8823 25.0879 31.6577C24.8584 31.4282 24.6387 31.1841 24.5996 31.1108C24.5166 30.9546 24.5117 30.6958 24.5801 30.5005C24.6484 30.3198 26.8066 28.1519 27.0068 28.064C27.2119 27.9761 27.4805 27.9761 27.6465 28.064C27.7197 28.103 27.9639 28.3228 28.1934 28.5522C28.418 28.7817 28.6328 28.9722 28.6621 28.9722C28.6914 28.9722 28.8428 28.9185 28.9941 28.8501L29.2676 28.728V28.0933C29.2676 27.3364 29.3359 27.1362 29.6582 26.9702C29.8389 26.8774 29.9414 26.8726 31.4648 26.8726C32.9883 26.8726 33.0908 26.8774 33.2715 26.9702C33.5938 27.1362 33.6621 27.3364 33.6621 28.0933V28.728L33.9355 28.8501C34.0869 28.9185 34.2383 28.9722 34.2676 28.9722C34.2969 28.9722 34.5117 28.7817 34.7363 28.5522C34.9658 28.3228 35.21 28.103 35.2832 28.064C35.4492 27.9761 35.7178 27.9761 35.9229 28.064C36.123 28.1519 38.2812 30.3198 38.3496 30.5005C38.418 30.6958 38.4131 30.9546 38.3301 31.1108C38.291 31.1841 38.0713 31.4282 37.8418 31.6577C37.6123 31.8823 37.4219 32.0972 37.4219 32.1265C37.4219 32.1558 37.4756 32.3071 37.5439 32.4585L37.666 32.7319H38.3008C39.0576 32.7319 39.2578 32.8003 39.4238 33.1226C39.5117 33.2983 39.5215 33.4058 39.5215 34.4897V35.6616H41.7432H43.9648V29.3677C43.9648 25.3735 43.9453 22.981 43.916 22.8149C43.8086 22.2339 43.3838 21.6528 42.8418 21.3354C42.2852 21.0132 43.2227 21.0376 31.5625 21.0327C25.708 21.0278 20.8447 21.0425 20.7275 21.0669ZM39.1846 23.9917C40.332 24.2114 41.1328 25.3345 40.9473 26.4624C40.791 27.4194 40.0684 28.1421 39.1113 28.2983C37.7002 28.5327 36.3965 27.229 36.6309 25.8179C36.8359 24.5874 37.9834 23.7671 39.1846 23.9917Z" fill="#217BF4"/>
<path d="M38.4375 25.5103C38.2275 25.6177 38.0566 25.9058 38.0566 26.1401C38.0566 26.3843 38.2275 26.6626 38.4473 26.7749C38.5498 26.8286 38.7061 26.8726 38.7891 26.8726C39.0332 26.8726 39.3115 26.7017 39.4238 26.4819C39.4775 26.3794 39.5215 26.2231 39.5215 26.1401C39.5215 25.896 39.3506 25.6177 39.1309 25.5054C38.8916 25.3833 38.6719 25.3833 38.4375 25.5103Z" fill="#217BF4"/>
<path d="M30.7324 28.8501C30.7324 29.6606 30.6348 29.8267 30.0293 30.0269C29.8145 30.1001 29.4092 30.2661 29.1357 30.3931C28.4131 30.7397 28.3154 30.7251 27.7295 30.1392L27.3389 29.7534L26.8115 30.2808L26.2891 30.8032L26.6602 31.1694C27.0361 31.5405 27.168 31.7505 27.168 31.9751C27.168 32.0435 27.0605 32.3267 26.9287 32.6001C26.8018 32.8735 26.6357 33.2788 26.5625 33.4937C26.3623 34.0991 26.1963 34.1968 25.3857 34.1968H24.873V34.9292V35.6616H26.3867H27.9004L27.8662 35.4517C27.8076 35.1343 27.8271 34.397 27.9004 34.0991C28.2178 32.7759 29.2969 31.6968 30.6348 31.3599C30.7861 31.3208 31.1475 31.2915 31.4648 31.2915C32.0654 31.2915 32.3828 31.3501 32.8564 31.5503C33.9258 32.0044 34.7607 32.981 35.0293 34.0991C35.1025 34.397 35.1221 35.1343 35.0635 35.4517L35.0293 35.6616H36.543H38.0566V34.9292V34.1968H37.5439C36.7334 34.1968 36.5674 34.0991 36.3672 33.4937C36.2939 33.2788 36.1279 32.8735 36.001 32.6001C35.8691 32.3267 35.7617 32.0435 35.7617 31.9751C35.7617 31.7505 35.8936 31.5405 36.2695 31.1694L36.6406 30.8032L36.1182 30.2808L35.5908 29.7534L35.2002 30.1392C34.6143 30.7251 34.5166 30.7397 33.7939 30.3931C33.5205 30.2661 33.1152 30.1001 32.9004 30.0269C32.2949 29.8267 32.1973 29.6606 32.1973 28.8501V28.3374H31.4648H30.7324V28.8501Z" fill="#217BF4"/>
<path d="M31.0303 32.7856C29.8926 33.0103 29.0821 34.2163 29.3213 35.3198L29.3897 35.6372H31.4649H33.5401L33.6084 35.3198C33.8038 34.4165 33.2813 33.3716 32.4317 32.9761C31.9483 32.7515 31.5137 32.688 31.0303 32.7856Z" fill="#217BF4"/>
<path d="M18.9648 37.5611C18.9648 37.7955 18.9893 38.108 19.0137 38.2544C19.1797 39.1333 19.8926 39.8462 20.7764 40.0074C20.9521 40.0415 24.5898 40.0513 31.6113 40.0464C43.2129 40.0318 42.2852 40.0562 42.8418 39.7339C43.3838 39.4165 43.8086 38.8355 43.916 38.2544C43.9404 38.1128 43.9648 37.7955 43.9648 37.5611V37.1265H31.4648H18.9648V37.5611Z" fill="#217BF4"/>
<path d="M26.792 42.2388L26.5479 42.9614L25.2344 42.9858C24.1016 43.0054 23.9014 43.02 23.7646 43.0981C23.5791 43.1958 23.4082 43.4985 23.4082 43.7183C23.4082 43.9624 23.5791 44.2407 23.7988 44.353C23.9893 44.4507 24.0723 44.4507 31.4648 44.4507C38.8574 44.4507 38.9404 44.4507 39.1309 44.353C39.3506 44.2407 39.5215 43.9624 39.5215 43.7183C39.5215 43.4985 39.3506 43.1958 39.165 43.0981C39.0283 43.02 38.8281 43.0054 37.6953 42.9858L36.3818 42.9614L36.1377 42.2388L35.8984 41.521H31.4648H27.0312L26.792 42.2388Z" fill="#217BF4"/>
</g>
<rect x="1.43588" y="0.48654" width="61.2297" height="61.2297" rx="10.205" stroke="#F1F6FA" stroke-width="0.887387"/>
<defs>
<clipPath id="clip0_524_1102">
<rect width="25" height="25" fill="white" transform="translate(18.9648 20.2319)"/>
</clipPath>
</defs>
</svg>
