<svg width="38" height="38" viewBox="0 0 38 38" fill="none" xmlns="http://www.w3.org/2000/svg">
<path d="M24.4027 6.43039C23.7493 5.85654 22.7452 5.85654 22.0971 6.43039L11.0472 16.1809C10.6912 16.4957 10.5 16.9325 10.5 17.3743H18.1499C19.1646 17.3743 20.0784 17.8009 20.6999 18.4763V16.5617C20.6999 16.1148 21.0824 15.7492 21.5499 15.7492H24.9499C25.4174 15.7492 25.7999 16.1148 25.7999 16.5617V19.8119C25.7999 20.2588 25.4174 20.6244 24.9499 20.6244H21.5499V27.1248H30.0499C31.4577 27.1248 32.5999 26.0329 32.5999 24.6871V18.9994H34.2999C35.0011 18.9994 35.628 18.588 35.883 17.9685C36.138 17.3489 35.968 16.6379 35.4527 16.1809L24.4027 6.43039ZM17.2999 21.437V28.7498H7.09998V21.437H17.2999ZM19.8499 20.6244C19.8499 19.7256 19.0903 18.9994 18.1499 18.9994H6.24998C5.30968 18.9994 4.54999 19.7256 4.54999 20.6244V28.7498H2.85C2.3825 28.7498 2 29.1155 2 29.5624C2 30.9081 3.14218 32 4.54999 32H7.09998H17.2999H19.8499C21.2577 32 22.3999 30.9081 22.3999 29.5624C22.3999 29.1155 22.0174 28.7498 21.5499 28.7498H19.8499V20.6244Z" fill="#217BF4"/>
</svg>
