<svg width="39" height="38" viewBox="0 0 39 38" fill="none" xmlns="http://www.w3.org/2000/svg">
<path d="M24.9887 6.43051C24.3352 5.85666 23.3312 5.85666 22.6831 6.43051L11.6331 16.181C11.2772 16.4958 11.0859 16.9326 11.0859 17.3744H18.7359C19.7506 17.3744 20.6643 17.801 21.2859 18.4764V16.5619C21.2859 16.115 21.6684 15.7493 22.1359 15.7493H25.5359C26.0034 15.7493 26.3859 16.115 26.3859 16.5619V19.812C26.3859 20.2589 26.0034 20.6246 25.5359 20.6246H22.1359V27.1249H30.6358C32.0436 27.1249 33.1858 26.033 33.1858 24.6873V18.9995H34.8858C35.5871 18.9995 36.2139 18.5881 36.4689 17.9686C36.7239 17.349 36.5539 16.638 36.0386 16.181L24.9887 6.43051Z" fill="#217BF4"/>
<path d="M9.24387 22.2163C8.17835 22.2163 7.31284 21.3759 7.31284 20.3413C7.31284 19.3067 8.17835 18.4663 9.24387 18.4663C10.3094 18.4663 11.1749 19.3067 11.1749 20.3413C11.1749 21.3759 10.3094 22.2163 9.24387 22.2163ZM6.66801 26.6058L7.03697 27.1851V25.675L6.66801 26.6058ZM4.83008 26.7699L6.20939 23.2877H12.1508L12.1473 23.2911L9.94042 27.0411L9.5887 27.6371L10.0025 28.1962L11.4508 30.1683V30.252V32.3949H7.03697V30.252L4.83008 26.7699ZM15.8646 22.752C14.6473 22.752 13.6577 21.7911 13.6577 20.6092C13.6577 19.4272 14.6473 18.4663 15.8646 18.4663C17.0818 18.4663 18.0715 19.4272 18.0715 20.6092C18.0715 21.7911 17.0818 22.752 15.8646 22.752ZM12.8611 27.4764L13.6577 28.5578V26.1237L12.8611 27.4764ZM18.0715 26.1237V28.5578L18.868 27.4764L18.0715 26.1237ZM20.8301 27.5735L18.0715 31.3235V33.4663H13.6577V31.3235L10.899 27.5735L13.1059 23.8235H18.6232L20.8301 27.5735Z" fill="#217BF4"/>
</svg>
