<svg width="38" height="38" viewBox="0 0 38 38" fill="none" xmlns="http://www.w3.org/2000/svg">
<path d="M8.39297 14.5316C6.79969 14.5316 5.50547 13.243 5.50547 11.6566C5.50547 10.0702 6.79969 8.78162 8.39297 8.78162C9.98625 8.78162 11.2805 10.0702 11.2805 11.6566C11.2805 13.243 9.98625 14.5316 8.39297 14.5316ZM4.54125 21.2622L5.09297 22.1504V19.835L4.54125 21.2622ZM1.79297 21.5138L3.85547 16.1745H12.7397L12.7345 16.1796L9.43453 21.9296L8.90859 22.8434L9.52734 23.7008L11.693 26.7247V26.853V30.1388H5.09297V26.853L1.79297 21.5138ZM24.893 26.7247L27.0586 23.7008L27.6773 22.8434L27.1514 21.9296L23.8514 16.1796L23.8463 16.1745H32.7305L34.793 21.5138L31.493 26.853V30.1388H24.893V26.853V26.7247ZM28.193 14.5316C26.5997 14.5316 25.3055 13.243 25.3055 11.6566C25.3055 10.0702 26.5997 8.78162 28.193 8.78162C29.7862 8.78162 31.0805 10.0702 31.0805 11.6566C31.0805 13.243 29.7862 14.5316 28.193 14.5316ZM32.0447 21.2622L31.493 19.835V22.1504L32.0447 21.2622ZM18.293 15.353C16.4728 15.353 14.993 13.8796 14.993 12.0673C14.993 10.2551 16.4728 8.78162 18.293 8.78162C20.1131 8.78162 21.593 10.2551 21.593 12.0673C21.593 13.8796 20.1131 15.353 18.293 15.353ZM13.8019 22.597L14.993 24.2553V20.5229L13.8019 22.597ZM21.593 20.5229V24.2553L22.7841 22.597L21.593 20.5229ZM25.718 22.7459L21.593 28.4959V31.7816H14.993V28.4959L10.868 22.7459L14.168 16.9959H22.418L25.718 22.7459Z" fill="#217BF4"/>
</svg>
