<svg width="253" height="253" viewBox="0 0 253 253" fill="none" xmlns="http://www.w3.org/2000/svg">
<circle cx="126.5" cy="126.5" r="87.5" fill="#F4F4F4"/>
<circle cx="126.5" cy="126.5" r="126" stroke="#E3E0E0" stroke-dasharray="4 4"/>
<path d="M127.269 77.7663C122.619 77.5563 118.929 81.0663 118.939 85.6863C118.949 90.1363 122.359 93.7063 126.689 93.7963C130.949 93.8963 134.609 90.3663 134.789 85.9963C134.979 81.5463 131.699 77.9663 127.269 77.7663ZM126.949 89.5763C124.809 89.6263 123.179 88.3963 123.139 85.9563C123.079 83.3963 124.359 81.8763 126.969 81.9063C129.359 81.9263 130.419 83.4663 130.589 85.5463C130.509 88.0963 129.119 89.5363 126.949 89.5763Z" fill="#217BF4"/>
<path d="M188.59 159.106C184.14 158.416 180.43 159.896 177.44 163.276C176.4 164.446 175.87 166.246 173.64 165.856C169.47 165.136 165.97 166.986 162.61 169.376C161.96 162.406 159 157.736 151.91 156.666C150.6 156.466 149.88 155.716 149.33 154.606C147.72 151.346 145.27 148.986 141.91 147.536C140.88 147.096 140.11 146.646 139.81 145.156C138.68 139.506 140.28 134.466 142.62 129.486C143.31 128.026 144.04 127.846 145.18 128.936C146.26 129.976 147.36 130.976 148.43 132.016C151.78 135.266 154.77 134.766 156.41 130.456C157.4 127.836 158.09 125.066 158.63 122.306C160.35 113.506 157.74 108.186 149.53 104.766C146.75 103.596 146.47 101.996 146.46 99.5063C146.4 84.3763 141.26 70.8863 132.8 58.5563C128.63 52.4863 125.1 52.4963 120.95 58.4963C112.43 70.8163 107.28 84.3363 107.24 99.4463C107.23 102.646 106.27 104.006 103.26 105.086C97.9796 106.996 94.9596 111.176 94.5396 116.806C94.1996 121.346 95.4696 125.716 97.0696 129.926C98.9496 134.916 101.76 135.456 105.51 131.686C106.56 130.636 107.73 129.696 108.86 128.726C109.64 128.056 110.4 128.096 110.81 129.096C112.87 134.086 115.14 138.846 113.85 144.746C113.09 148.186 110.2 147.576 108.63 149.236C107.14 150.806 105.56 152.276 104.54 154.206C103.9 155.416 103.29 156.446 101.72 156.686C94.6196 157.746 91.7096 162.486 91.0396 169.496C87.9896 167.266 85.2796 165.486 81.9496 165.826C79.3496 166.096 77.7696 165.306 76.1096 163.206C73.2196 159.546 69.1096 158.286 64.4796 159.236C63.1996 159.496 61.7396 160.036 62.0396 161.806C62.3096 163.466 63.4796 163.846 65.0396 163.426C65.8296 163.216 66.6696 163.036 67.4796 163.096C72.8196 163.426 74.6196 166.906 71.7896 171.306C70.7896 172.866 70.1796 174.546 70.0296 176.426C69.9196 177.856 69.8896 179.286 71.5396 179.626C73.2696 179.996 73.9196 178.506 74.0796 177.206C74.4496 174.116 75.9096 171.936 78.7196 170.626C81.7896 169.196 84.4796 169.866 87.0496 171.906C89.8296 174.106 87.0096 175.656 86.4996 177.486C86.2296 178.446 85.8496 179.376 85.6596 180.356C85.3596 181.896 85.2996 183.506 87.3196 183.866C89.1496 184.196 89.4796 182.706 89.7396 181.376C90.3496 178.216 91.8696 175.826 95.0896 174.766C96.5896 174.276 98.7597 174.656 99.2697 172.676C99.8897 170.226 97.7496 170.246 96.1796 169.826C95.4196 169.626 95.3496 168.866 95.4096 168.196C95.6196 165.756 96.5596 163.636 98.5896 162.226C100.2 161.096 101.76 159.956 103.7 162.306C104.97 163.836 106.44 162.736 106.99 161.006C107.28 160.066 107.18 159.006 107.47 158.056C108.52 154.676 110.67 152.086 114.1 151.166C117.16 150.336 117.66 153.646 119.04 155.236C126.94 164.346 126.88 164.406 135.09 154.546C138.67 150.246 141.43 150.306 144.62 154.776C145.71 156.296 146.18 158.026 146.54 159.856C146.98 162.116 147.4 164.346 150.63 161.786C153.61 159.436 155.62 162.226 156.92 164.346C158.12 166.286 160.53 169.216 155.7 170.246C154.82 170.436 154.31 171.136 154.25 172.066C154.17 173.296 154.95 173.956 156 174.106C160.73 174.776 163.5 177.366 164.13 182.146C164.28 183.306 164.96 183.946 166.13 183.896C167.62 183.836 168.19 182.776 168.09 181.536C167.99 180.226 167.54 178.956 167.22 177.676C166.74 175.716 163.67 173.996 166.82 171.716C169.65 169.656 172.53 169.186 175.65 170.966C177.99 172.296 179.19 174.336 179.58 176.986C179.77 178.306 180.28 179.896 181.95 179.646C183.97 179.346 183.65 177.566 183.56 176.056C183.43 173.786 182.6 171.696 181.08 170.186C178.48 167.626 180.15 166.076 182.09 164.646C183.88 163.336 186 162.656 188.22 163.266C189.91 163.726 191.36 163.776 191.6 161.716C191.83 159.676 190.02 159.326 188.59 159.106ZM146.41 108.076C155.79 111.586 157.34 117.916 152.24 129.016C140.45 124.896 146.82 115.796 146.41 108.076ZM101.73 128.956C95.6196 117.936 98.8397 109.666 107.14 108.226C107.3 110.096 107.21 111.806 107.63 113.386C109.38 120.036 109.5 126.016 101.73 128.956ZM126.84 58.6663C129.45 58.5063 130.42 62.4063 132.27 65.4363H121.95C122.87 62.4163 124.14 58.8263 126.84 58.6663ZM111.52 110.886C110.49 97.9763 111.68 85.3763 117.18 73.3863C118.54 70.4163 120.11 69.1963 123.51 69.2263C135.7 69.3263 135.76 69.1663 139.35 81.1063C140.5 84.9163 141.4 88.8263 142 92.7463C142.5 96.0163 142.41 99.3663 142.61 103.376C142.32 106.846 141.83 110.976 141.68 115.116C141.55 118.616 139.88 119.456 136.62 119.336C127.78 119.026 128.83 120.446 128.73 111.226C128.71 109.736 128.74 108.236 128.71 106.736C128.69 105.396 128.72 103.736 126.96 103.686C124.81 103.616 124.96 105.496 124.93 106.956C124.88 109.786 124.82 112.616 124.94 115.436C125.04 118.076 124.22 119.246 121.29 119.346C112.45 119.666 112.22 119.726 111.52 110.886ZM133.06 150.596C126.98 158.566 126.71 158.606 120.67 150.636C120.57 150.506 120.49 150.356 120.38 150.226C117.86 147.136 116.91 143.466 118.7 140.006C120.54 136.446 124.47 139.066 127.33 138.126C129.89 139.006 133.41 136.566 135.01 139.946C136.81 143.726 135.57 147.306 133.06 150.596ZM131.55 134.026H126.58C124.43 134.026 122.28 134.046 120.13 134.006C119.31 133.996 118.41 134.026 117.7 133.696C116.3 133.046 113.36 124.596 114.28 124.276C117.44 123.206 120.86 123.256 123.98 124.136C125.75 124.646 124.71 127.076 124.94 128.636C125.13 129.876 125.43 131.046 126.89 131.026C128.38 130.996 128.53 129.736 128.71 128.536C128.94 126.996 127.87 124.536 129.74 124.116C132.58 123.476 135.64 123.816 138.61 123.806C139.42 123.806 139.52 124.426 139.59 125.176C139.98 129.636 136.05 134.006 131.55 134.026Z" fill="#217BF4"/>
<path d="M127.269 77.7663C122.619 77.5563 118.929 81.0663 118.939 85.6863C118.949 90.1363 122.359 93.7063 126.689 93.7963C130.949 93.8963 134.609 90.3663 134.789 85.9963C134.979 81.5463 131.699 77.9663 127.269 77.7663ZM126.949 89.5763C124.809 89.6263 123.179 88.3963 123.139 85.9563C123.079 83.3963 124.359 81.8763 126.969 81.9063C129.359 81.9263 130.419 83.4663 130.589 85.5463C130.509 88.0963 129.119 89.5363 126.949 89.5763Z" fill="#EEF9F7"/>
<path d="M127.269 77.7663C122.619 77.5563 118.929 81.0663 118.939 85.6863C118.949 90.1363 122.359 93.7063 126.689 93.7963C130.949 93.8963 134.609 90.3663 134.789 85.9963C134.979 81.5463 131.699 77.9663 127.269 77.7663ZM126.949 89.5763C124.809 89.6263 123.179 88.3963 123.139 85.9563C123.079 83.3963 124.359 81.8763 126.969 81.9063C129.359 81.9263 130.419 83.4663 130.589 85.5463C130.509 88.0963 129.119 89.5363 126.949 89.5763Z" fill="#217BF4"/>
</svg>
