<svg width="253" height="253" viewBox="0 0 253 253" fill="none" xmlns="http://www.w3.org/2000/svg">
<circle cx="126.5" cy="126.5" r="87.5" fill="#F4F4F4"/>
<path d="M179.861 119.241C175.871 115.001 169.671 114.961 164.661 119.381C161.661 122.011 158.911 124.931 156.131 127.801C154.771 129.211 153.731 129.731 152.051 128.071C147.431 123.491 141.811 120.711 135.361 119.791C131.981 119.311 133.051 116.801 132.881 114.821C132.671 112.291 134.391 112.331 136.151 112.341C140.311 112.371 144.471 112.401 148.631 112.341C159.291 112.181 168.421 105.081 170.611 94.7409C171.391 91.0509 171.111 87.1209 171.131 83.3009C171.191 71.1709 171.131 71.5809 158.811 71.0509C145.871 70.5009 135.911 74.3009 130.611 87.6509C125.581 75.7209 117.221 70.5009 105.141 71.1409C101.661 71.3209 98.1313 71.3909 94.6613 71.1109C90.8113 70.7909 89.7313 72.3909 89.9313 76.0109C90.1913 80.6609 89.9313 85.3309 90.0113 89.9909C90.2013 102.261 100.001 112.081 112.281 112.331C116.101 112.411 119.941 112.281 123.761 112.381C125.711 112.431 128.271 111.441 128.411 115.091C128.531 118.051 127.821 119.651 124.551 120.111C118.811 120.921 113.791 123.551 109.701 127.661C108.101 129.261 106.671 129.771 104.461 129.161C95.9414 126.791 88.3513 129.251 81.3613 134.071C72.6813 140.051 65.7913 148.061 57.8913 154.931C55.2713 157.211 55.5313 159.881 57.7013 162.411C63.0913 168.731 68.5513 175.011 73.9113 181.361C76.4613 184.381 79.1413 184.461 82.1513 182.131C86.0913 179.071 90.1813 176.191 94.0013 172.981C96.5713 170.811 99.2413 170.011 102.601 170.061C114.751 170.251 126.911 170.111 139.061 170.161C141.451 170.161 143.581 169.981 145.441 168.091C156.651 156.711 168.041 145.491 179.181 134.041C183.771 129.331 183.801 123.421 179.861 119.241ZM136.541 85.0809C140.331 78.3709 146.321 75.4709 153.831 75.2009C167.011 74.7209 167.011 74.7109 166.961 87.6909C166.911 100.551 159.371 108.111 146.541 108.161C143.901 108.171 141.251 108.161 138.611 108.161C138.331 107.741 138.051 107.321 137.771 106.901C141.731 103.161 145.941 99.6409 149.551 95.5909C151.471 93.4409 156.971 91.3109 153.871 88.3309C150.951 85.5309 148.781 91.0109 146.531 92.9709C142.431 96.5409 138.801 100.661 134.231 105.311C133.951 97.7109 133.101 91.1809 136.541 85.0809ZM126.991 104.971C122.111 100.101 118.151 95.8309 113.821 91.9609C111.901 90.2509 109.981 85.4909 107.091 88.4809C104.541 91.1209 109.251 92.8809 110.901 94.7309C114.831 99.1309 119.201 103.141 124.011 107.941C118.581 107.941 114.101 108.441 109.781 107.831C101.441 106.661 95.1113 99.7509 94.3213 91.2409C93.9113 86.7909 94.2213 82.2809 94.1713 77.7909C94.1613 76.2909 94.4513 75.1509 96.3013 75.2109C102.261 75.3809 108.291 74.5009 114.141 76.3209C121.361 78.5709 126.681 85.4609 126.961 93.0309C127.091 96.5109 126.991 100.011 126.991 104.971ZM148.641 131.521H112.921C119.921 121.141 141.381 121.181 148.641 131.521ZM175.391 131.891C164.801 142.481 154.161 153.041 143.631 163.711C141.961 165.401 140.261 166.051 137.921 166.011C131.431 165.881 124.931 165.961 118.441 165.961C117.771 165.961 117.091 166.041 116.441 165.951C102.861 164.031 90.8713 166.961 81.3113 177.381C79.3213 179.551 77.6513 179.471 75.6913 177.041C71.3113 171.611 66.7013 166.351 62.1113 161.091C60.7713 159.561 59.9613 158.501 62.0013 156.711C68.3813 151.131 74.4313 145.151 80.9013 139.671C88.4713 133.261 97.0613 130.591 106.861 134.121C116.161 137.481 125.821 137.271 135.491 137.141C137.821 137.111 140.151 137.151 142.481 137.181C146.261 137.221 149.941 137.961 149.831 142.621C149.721 146.991 146.161 147.551 142.561 147.541C133.741 147.511 124.911 147.531 116.091 147.531C114.921 147.531 113.751 147.521 112.591 147.581C110.811 147.681 109.791 148.561 109.951 150.441C110.111 152.351 111.461 152.181 112.861 152.171C123.021 152.071 133.171 152.151 143.331 151.931C151.411 151.751 155.101 147.091 153.421 139.171C153.041 137.341 153.521 136.381 154.641 135.281C158.781 131.181 162.811 126.971 167.041 122.961C170.571 119.621 174.271 119.331 176.701 122.231C179.681 125.781 178.291 129.001 175.391 131.891Z" fill="#217BF4"/>
<circle cx="126.5" cy="126.5" r="126" stroke="#E3E0E0" stroke-dasharray="4 4"/>
</svg>
