<svg width="253" height="341" viewBox="0 0 253 341" fill="none" xmlns="http://www.w3.org/2000/svg">
<circle cx="126.5" cy="126.5" r="87.5" fill="#F4F4F4"/>
<path d="M179.861 119.241C175.871 115.001 169.671 114.961 164.661 119.381C161.661 122.011 158.911 124.931 156.131 127.801C154.771 129.211 153.731 129.731 152.051 128.071C147.431 123.491 141.811 120.711 135.361 119.791C131.981 119.311 133.051 116.801 132.881 114.821C132.671 112.291 134.391 112.331 136.151 112.341C140.311 112.371 144.471 112.401 148.631 112.341C159.291 112.181 168.421 105.081 170.611 94.7409C171.391 91.0509 171.111 87.1209 171.131 83.3009C171.191 71.1709 171.131 71.5809 158.811 71.0509C145.871 70.5009 135.911 74.3009 130.611 87.6509C125.581 75.7209 117.221 70.5009 105.141 71.1409C101.661 71.3209 98.1313 71.3909 94.6613 71.1109C90.8113 70.7909 89.7313 72.3909 89.9313 76.0109C90.1913 80.6609 89.9313 85.3309 90.0113 89.9909C90.2013 102.261 100.001 112.081 112.281 112.331C116.101 112.411 119.941 112.281 123.761 112.381C125.711 112.431 128.271 111.441 128.411 115.091C128.531 118.051 127.821 119.651 124.551 120.111C118.811 120.921 113.791 123.551 109.701 127.661C108.101 129.261 106.671 129.771 104.461 129.161C95.9414 126.791 88.3513 129.251 81.3613 134.071C72.6813 140.051 65.7913 148.061 57.8913 154.931C55.2713 157.211 55.5313 159.881 57.7013 162.411C63.0913 168.731 68.5513 175.011 73.9113 181.361C76.4613 184.381 79.1413 184.461 82.1513 182.131C86.0913 179.071 90.1813 176.191 94.0013 172.981C96.5713 170.811 99.2413 170.011 102.601 170.061C114.751 170.251 126.911 170.111 139.061 170.161C141.451 170.161 143.581 169.981 145.441 168.091C156.651 156.711 168.041 145.491 179.181 134.041C183.771 129.331 183.801 123.421 179.861 119.241ZM136.541 85.0809C140.331 78.3709 146.321 75.4709 153.831 75.2009C167.011 74.7209 167.011 74.7109 166.961 87.6909C166.911 100.551 159.371 108.111 146.541 108.161C143.901 108.171 141.251 108.161 138.611 108.161C138.331 107.741 138.051 107.321 137.771 106.901C141.731 103.161 145.941 99.6409 149.551 95.5909C151.471 93.4409 156.971 91.3109 153.871 88.3309C150.951 85.5309 148.781 91.0109 146.531 92.9709C142.431 96.5409 138.801 100.661 134.231 105.311C133.951 97.7109 133.101 91.1809 136.541 85.0809ZM126.991 104.971C122.111 100.101 118.151 95.8309 113.821 91.9609C111.901 90.2509 109.981 85.4909 107.091 88.4809C104.541 91.1209 109.251 92.8809 110.901 94.7309C114.831 99.1309 119.201 103.141 124.011 107.941C118.581 107.941 114.101 108.441 109.781 107.831C101.441 106.661 95.1113 99.7509 94.3213 91.2409C93.9113 86.7909 94.2213 82.2809 94.1713 77.7909C94.1613 76.2909 94.4513 75.1509 96.3013 75.2109C102.261 75.3809 108.291 74.5009 114.141 76.3209C121.361 78.5709 126.681 85.4609 126.961 93.0309C127.091 96.5109 126.991 100.011 126.991 104.971ZM148.641 131.521H112.921C119.921 121.141 141.381 121.181 148.641 131.521ZM175.391 131.891C164.801 142.481 154.161 153.041 143.631 163.711C141.961 165.401 140.261 166.051 137.921 166.011C131.431 165.881 124.931 165.961 118.441 165.961C117.771 165.961 117.091 166.041 116.441 165.951C102.861 164.031 90.8713 166.961 81.3113 177.381C79.3213 179.551 77.6513 179.471 75.6913 177.041C71.3113 171.611 66.7013 166.351 62.1113 161.091C60.7713 159.561 59.9613 158.501 62.0013 156.711C68.3813 151.131 74.4313 145.151 80.9013 139.671C88.4713 133.261 97.0613 130.591 106.861 134.121C116.161 137.481 125.821 137.271 135.491 137.141C137.821 137.111 140.151 137.151 142.481 137.181C146.261 137.221 149.941 137.961 149.831 142.621C149.721 146.991 146.161 147.551 142.561 147.541C133.741 147.511 124.911 147.531 116.091 147.531C114.921 147.531 113.751 147.521 112.591 147.581C110.811 147.681 109.791 148.561 109.951 150.441C110.111 152.351 111.461 152.181 112.861 152.171C123.021 152.071 133.171 152.151 143.331 151.931C151.411 151.751 155.101 147.091 153.421 139.171C153.041 137.341 153.521 136.381 154.641 135.281C158.781 131.181 162.811 126.971 167.041 122.961C170.571 119.621 174.271 119.331 176.701 122.231C179.681 125.781 178.291 129.001 175.391 131.891Z" fill="#217BF4"/>
<circle cx="126.5" cy="126.5" r="126" stroke="#E3E0E0" stroke-dasharray="4 4"/>
<path d="M76.7955 316.545C76.6591 315.394 76.1061 314.5 75.1364 313.864C74.1667 313.227 72.9773 312.909 71.5682 312.909C70.5379 312.909 69.6364 313.076 68.8636 313.409C68.0985 313.742 67.5 314.201 67.0682 314.784C66.6439 315.367 66.4318 316.03 66.4318 316.773C66.4318 317.394 66.5795 317.928 66.875 318.375C67.178 318.814 67.5644 319.182 68.0341 319.477C68.5038 319.765 68.9962 320.004 69.5114 320.193C70.0265 320.375 70.5 320.523 70.9318 320.636L73.2955 321.273C73.9015 321.432 74.5758 321.652 75.3182 321.932C76.0682 322.212 76.7841 322.595 77.4659 323.08C78.1553 323.557 78.7235 324.17 79.1705 324.92C79.6174 325.67 79.8409 326.591 79.8409 327.682C79.8409 328.939 79.5114 330.076 78.8523 331.091C78.2008 332.106 77.2462 332.913 75.9886 333.511C74.7386 334.11 73.2197 334.409 71.4318 334.409C69.7652 334.409 68.322 334.14 67.1023 333.602C65.8902 333.064 64.9356 332.314 64.2386 331.352C63.5492 330.39 63.1591 329.273 63.0682 328H65.9773C66.053 328.879 66.3485 329.606 66.8636 330.182C67.3864 330.75 68.0455 331.174 68.8409 331.455C69.6439 331.727 70.5076 331.864 71.4318 331.864C72.5076 331.864 73.4735 331.689 74.3295 331.341C75.1856 330.985 75.8636 330.492 76.3636 329.864C76.8636 329.227 77.1136 328.485 77.1136 327.636C77.1136 326.864 76.8977 326.235 76.4659 325.75C76.0341 325.265 75.4659 324.871 74.7614 324.568C74.0568 324.265 73.2955 324 72.4773 323.773L69.6136 322.955C67.7955 322.432 66.3561 321.686 65.2955 320.716C64.2348 319.746 63.7045 318.477 63.7045 316.909C63.7045 315.606 64.0568 314.47 64.7614 313.5C65.4735 312.523 66.428 311.765 67.625 311.227C68.8295 310.682 70.1742 310.409 71.6591 310.409C73.1591 310.409 74.4924 310.678 75.6591 311.216C76.8258 311.746 77.75 312.473 78.4318 313.398C79.1212 314.322 79.4848 315.371 79.5227 316.545H76.7955ZM91.7017 316.545V318.818H82.6562V316.545H91.7017ZM85.2926 312.364H87.9744V329C87.9744 329.758 88.0843 330.326 88.304 330.705C88.5313 331.076 88.8191 331.326 89.1676 331.455C89.5237 331.576 89.8987 331.636 90.2926 331.636C90.5881 331.636 90.8305 331.621 91.0199 331.591C91.2093 331.553 91.3608 331.523 91.4744 331.5L92.0199 333.909C91.8381 333.977 91.5843 334.045 91.2585 334.114C90.9328 334.189 90.5199 334.227 90.0199 334.227C89.2623 334.227 88.5199 334.064 87.7926 333.739C87.0729 333.413 86.4744 332.917 85.9972 332.25C85.5275 331.583 85.2926 330.742 85.2926 329.727V312.364ZM100.872 334.409C99.7661 334.409 98.7623 334.201 97.8608 333.784C96.9593 333.36 96.2434 332.75 95.7131 331.955C95.1828 331.152 94.9176 330.182 94.9176 329.045C94.9176 328.045 95.1146 327.235 95.5085 326.614C95.9025 325.985 96.429 325.492 97.0881 325.136C97.7472 324.78 98.4744 324.515 99.2699 324.341C100.073 324.159 100.88 324.015 101.69 323.909C102.751 323.773 103.611 323.67 104.27 323.602C104.937 323.527 105.421 323.402 105.724 323.227C106.035 323.053 106.19 322.75 106.19 322.318V322.227C106.19 321.106 105.884 320.235 105.27 319.614C104.664 318.992 103.743 318.682 102.509 318.682C101.228 318.682 100.224 318.962 99.4972 319.523C98.7699 320.083 98.2585 320.682 97.9631 321.318L95.4176 320.409C95.8722 319.348 96.4782 318.523 97.2358 317.932C98.0009 317.333 98.8343 316.917 99.7358 316.682C100.645 316.439 101.539 316.318 102.418 316.318C102.978 316.318 103.622 316.386 104.349 316.523C105.084 316.652 105.793 316.92 106.474 317.33C107.164 317.739 107.736 318.356 108.19 319.182C108.645 320.008 108.872 321.114 108.872 322.5V334H106.19V331.636H106.054C105.872 332.015 105.569 332.42 105.145 332.852C104.721 333.284 104.156 333.652 103.452 333.955C102.747 334.258 101.887 334.409 100.872 334.409ZM101.281 332C102.342 332 103.236 331.792 103.963 331.375C104.698 330.958 105.251 330.42 105.622 329.761C106.001 329.102 106.19 328.409 106.19 327.682V325.227C106.077 325.364 105.827 325.489 105.44 325.602C105.062 325.708 104.622 325.803 104.122 325.886C103.63 325.962 103.149 326.03 102.679 326.091C102.217 326.144 101.842 326.189 101.554 326.227C100.857 326.318 100.205 326.466 99.5994 326.67C99.0009 326.867 98.5161 327.167 98.1449 327.568C97.7813 327.962 97.5994 328.5 97.5994 329.182C97.5994 330.114 97.9441 330.818 98.6335 331.295C99.3305 331.765 100.213 332 101.281 332ZM113.767 334V316.545H116.358V319.182H116.54C116.858 318.318 117.434 317.617 118.267 317.08C119.1 316.542 120.04 316.273 121.085 316.273C121.282 316.273 121.528 316.277 121.824 316.284C122.119 316.292 122.343 316.303 122.494 316.318V319.045C122.403 319.023 122.195 318.989 121.869 318.943C121.551 318.89 121.214 318.864 120.858 318.864C120.009 318.864 119.252 319.042 118.585 319.398C117.926 319.746 117.403 320.231 117.017 320.852C116.638 321.466 116.449 322.167 116.449 322.955V334H113.767ZM134.358 316.545V318.818H125.312V316.545H134.358ZM127.949 312.364H130.631V329C130.631 329.758 130.741 330.326 130.96 330.705C131.188 331.076 131.475 331.326 131.824 331.455C132.18 331.576 132.555 331.636 132.949 331.636C133.244 331.636 133.487 331.621 133.676 331.591C133.866 331.553 134.017 331.523 134.131 331.5L134.676 333.909C134.494 333.977 134.241 334.045 133.915 334.114C133.589 334.189 133.176 334.227 132.676 334.227C131.919 334.227 131.176 334.064 130.449 333.739C129.729 333.413 129.131 332.917 128.653 332.25C128.184 331.583 127.949 330.742 127.949 329.727V312.364ZM149.392 326.864V316.545H152.074V334H149.392V331.045H149.21C148.801 331.932 148.165 332.686 147.301 333.307C146.438 333.92 145.347 334.227 144.028 334.227C142.938 334.227 141.968 333.989 141.119 333.511C140.271 333.027 139.604 332.299 139.119 331.33C138.634 330.352 138.392 329.121 138.392 327.636V316.545H141.074V327.455C141.074 328.727 141.43 329.742 142.142 330.5C142.862 331.258 143.778 331.636 144.892 331.636C145.559 331.636 146.237 331.466 146.926 331.125C147.623 330.784 148.206 330.261 148.676 329.557C149.153 328.852 149.392 327.955 149.392 326.864ZM156.986 340.545V316.545H159.577V319.318H159.895C160.092 319.015 160.365 318.629 160.713 318.159C161.069 317.682 161.577 317.258 162.236 316.886C162.902 316.508 163.804 316.318 164.94 316.318C166.41 316.318 167.705 316.686 168.827 317.42C169.948 318.155 170.823 319.197 171.452 320.545C172.08 321.894 172.395 323.485 172.395 325.318C172.395 327.167 172.08 328.769 171.452 330.125C170.823 331.473 169.952 332.519 168.838 333.261C167.724 333.996 166.44 334.364 164.986 334.364C163.865 334.364 162.967 334.178 162.293 333.807C161.618 333.428 161.099 333 160.736 332.523C160.372 332.038 160.092 331.636 159.895 331.318H159.668V340.545H156.986ZM159.622 325.273C159.622 326.591 159.815 327.754 160.202 328.761C160.588 329.761 161.152 330.545 161.895 331.114C162.637 331.674 163.546 331.955 164.622 331.955C165.743 331.955 166.679 331.659 167.429 331.068C168.187 330.47 168.755 329.667 169.134 328.659C169.52 327.644 169.713 326.515 169.713 325.273C169.713 324.045 169.524 322.939 169.145 321.955C168.774 320.962 168.209 320.178 167.452 319.602C166.702 319.019 165.759 318.727 164.622 318.727C163.531 318.727 162.615 319.004 161.872 319.557C161.13 320.102 160.569 320.867 160.19 321.852C159.812 322.83 159.622 323.97 159.622 325.273ZM188.849 320.455L186.44 321.136C186.289 320.735 186.065 320.345 185.77 319.966C185.482 319.58 185.088 319.261 184.588 319.011C184.088 318.761 183.448 318.636 182.668 318.636C181.599 318.636 180.709 318.883 179.997 319.375C179.293 319.86 178.94 320.477 178.94 321.227C178.94 321.894 179.183 322.42 179.668 322.807C180.152 323.193 180.91 323.515 181.94 323.773L184.531 324.409C186.092 324.788 187.255 325.367 188.02 326.148C188.785 326.92 189.168 327.917 189.168 329.136C189.168 330.136 188.88 331.03 188.304 331.818C187.736 332.606 186.94 333.227 185.918 333.682C184.895 334.136 183.705 334.364 182.349 334.364C180.569 334.364 179.096 333.977 177.929 333.205C176.762 332.432 176.024 331.303 175.713 329.818L178.259 329.182C178.501 330.121 178.959 330.826 179.634 331.295C180.315 331.765 181.205 332 182.304 332C183.554 332 184.546 331.735 185.281 331.205C186.024 330.667 186.395 330.023 186.395 329.273C186.395 328.667 186.183 328.159 185.759 327.75C185.334 327.333 184.683 327.023 183.804 326.818L180.895 326.136C179.296 325.758 178.122 325.17 177.372 324.375C176.63 323.572 176.259 322.568 176.259 321.364C176.259 320.379 176.535 319.508 177.088 318.75C177.649 317.992 178.41 317.398 179.372 316.966C180.342 316.534 181.44 316.318 182.668 316.318C184.395 316.318 185.751 316.697 186.736 317.455C187.728 318.212 188.433 319.212 188.849 320.455Z" fill="#5A5A5A"/>
</svg>
