<svg width="253" height="412" viewBox="0 0 253 412" fill="none" xmlns="http://www.w3.org/2000/svg">
<circle cx="126.5" cy="126.5" r="87.5" fill="#F4F4F4"/>
<circle cx="126.5" cy="126.5" r="126" stroke="#E3E0E0" stroke-dasharray="4 4"/>
<path d="M142.335 117.13C142.335 119.12 142.395 121.12 142.315 123.11C142.265 124.41 142.295 126 140.415 126.03C138.485 126.06 138.565 124.46 138.545 123.16C138.495 119.67 138.575 116.18 138.515 112.69C138.405 105.65 134.775 102.11 127.635 102.03C125.305 102 122.975 101.98 120.655 102.04C114.385 102.19 111.215 105.08 110.475 111.3C109.695 117.82 108.565 118.79 102.025 119.07C100.465 119.14 97.7349 117.95 97.7349 120.78C97.7349 123.36 100.355 122.69 102.065 122.77C104.225 122.87 106.385 122.81 108.545 122.79C115.895 122.75 117.025 121.76 117.825 114.4C117.975 113.01 117.965 111.52 119.785 111.59C121.475 111.65 121.635 113.06 121.775 114.49C122.395 120.9 118.925 125.7 112.525 126.32C108.085 126.76 103.555 126.67 99.1049 126.37C95.5149 126.13 93.1949 124.05 93.6149 120.11C94.0049 116.46 96.4949 114.87 99.8749 115.18C104.445 115.6 107.385 114.65 106.795 109.22C106.715 108.46 107.135 107.61 107.425 106.84C110.265 99.25 118.415 96.24 130.605 98.25C137.595 99.4 141.865 104.26 142.305 111.64C142.425 113.47 142.335 115.31 142.335 117.13Z" fill="#217BF4"/>
<path d="M148.085 184.84C145.615 184.69 142.775 185.14 139.995 184.31C134.735 182.74 131.385 176.82 132.895 171.69C133.205 170.62 133.675 169.83 134.895 169.92C136.065 170.01 136.665 170.77 136.715 171.9C136.835 175.01 136.035 178.67 139.865 180.08C144.815 181.91 150.065 180.73 155.185 180.8C156.325 180.82 156.985 179.93 156.865 178.78C156.775 177.88 156.115 177.31 155.185 177.26C153.855 177.19 152.525 177.14 151.195 177.17C146.785 177.26 144.465 175.31 144.055 170.75C143.345 162.95 140.275 160.27 132.535 160.18C130.535 160.16 128.535 160.11 126.545 160.19C119.735 160.46 116.155 164.05 115.965 170.82C115.875 174.31 115.945 177.81 115.935 181.31C115.925 182.64 116.035 184.36 114.305 184.43C112.305 184.51 112.135 182.71 112.135 181.16C112.145 177 111.915 172.81 112.315 168.69C112.975 161.85 117.335 157.45 124.175 156.59C128.125 156.09 132.145 156.09 136.115 156.68C143.085 157.72 147.215 161.77 147.725 168.85C147.965 172.3 149.165 173.57 152.565 173.39C156.545 173.18 160.585 173.38 160.875 178.83C161.095 182.98 158.445 184.8 152.445 184.85C151.085 184.85 149.755 184.84 148.085 184.84Z" fill="#217BF4"/>
<path d="M168.885 154.54C171.875 154.54 174.895 154.24 177.835 154.61C182.805 155.23 184.685 158.51 182.825 163.11C181.215 167.11 179.425 171.04 177.525 174.9C175.715 178.57 170.105 180.45 166.375 178.87C165.535 178.51 164.925 177.95 165.025 177.04C165.175 175.64 166.235 175.27 167.485 175.08C169.525 174.77 172.305 176.16 173.505 174C175.835 169.81 177.695 165.35 179.475 160.89C180.175 159.14 178.635 158.66 177.165 158.65C171.675 158.63 166.195 158.69 160.705 158.62C158.325 158.59 157.715 160.35 156.885 161.95C156.125 163.42 155.435 164.94 154.615 166.38C154.105 167.26 153.325 168.03 152.195 167.47C150.935 166.85 150.965 165.89 151.365 164.55C153.795 156.44 156.505 154.33 164.895 154.31C166.225 154.31 167.555 154.31 168.885 154.31C168.875 154.39 168.885 154.47 168.885 154.54Z" fill="#217BF4"/>
<path d="M85.485 96.13C87.145 96.13 88.8149 96.13 90.4749 96.13C97.6449 96.14 101.955 99.71 103.315 106.66C103.495 107.56 103.545 108.33 102.775 108.87C101.795 109.57 100.885 109.2 100.095 108.46C99.865 108.24 99.6349 107.93 99.5649 107.62C97.4349 98.07 89.8949 100.07 83.3449 100.05C73.5849 100.01 73.585 100.04 77.635 108.88C78.045 109.79 78.5049 110.68 78.8449 111.61C80.1049 115.13 81.7449 117.98 86.3149 117.01C87.6349 116.73 89.305 117.04 89.435 118.68C89.595 120.72 87.8449 120.75 86.2849 120.9C81.4749 121.35 77.8649 120.09 76.1249 115.01C74.9449 111.57 73.0449 108.38 71.6949 105C69.7849 100.21 71.8949 96.7 77.0049 96.23C79.8049 95.97 82.655 96.18 85.485 96.18C85.485 96.16 85.485 96.14 85.485 96.13Z" fill="#217BF4"/>
<path d="M123.505 94.45C117.215 94.48 112.075 89.26 112.195 82.97C112.305 76.94 117.395 71.99 123.475 72C129.675 72.01 134.615 76.79 134.745 82.92C134.875 89.21 129.795 94.42 123.505 94.45Z" fill="#217BF4"/>
<path d="M131.105 130.12C137.335 130.2 142.545 135.64 142.305 141.79C142.065 147.82 136.825 152.88 130.895 152.81C124.775 152.74 119.495 147.2 119.715 141.08C119.925 135.04 125.125 130.04 131.105 130.12Z" fill="#217BF4"/>
<path d="M87.7851 145.26C87.7851 156.31 87.7851 156.2 98.7951 156.4C101.345 156.45 105.965 154.81 106.005 158.23C106.045 161.87 101.475 159.66 98.9851 160.12C97.2151 160.45 95.3351 160.18 93.5051 160.18C85.0351 160.17 83.8551 158.97 83.8551 150.26C83.8551 145.93 83.8451 141.6 83.8751 137.27C83.8851 135.74 83.9651 133.96 86.0851 134.14C87.7951 134.29 87.7851 135.9 87.7851 137.26C87.7851 139.93 87.7851 142.59 87.7851 145.26Z" fill="#217BF4"/>
<path d="M177.895 129.88C177.895 132.37 177.995 134.86 177.855 137.34C177.775 138.79 178.655 141.18 175.985 141.03C173.685 140.9 174.075 138.68 174.045 137.11C173.975 132.63 173.795 128.14 174.085 123.69C174.335 119.87 172.855 118.7 169.215 118.99C165.755 119.26 162.255 119.06 158.775 119.03C157.425 119.02 155.855 118.93 155.745 117.22C155.605 115 157.455 115.15 158.925 115.14C163.235 115.1 167.545 115.07 171.855 115.14C175.935 115.2 177.845 117.46 177.885 121.44C177.915 124.24 177.895 127.06 177.895 129.88Z" fill="#217BF4"/>
<path d="M130.845 83C130.955 87.17 127.475 90.82 123.435 90.76C119.695 90.71 116.005 87.09 115.925 83.41C115.845 79.43 119.005 76.0801 123.025 75.9001C127.485 75.6901 130.725 78.64 130.845 83Z" fill="#ECF8F6"/>
<path d="M131.185 134C135.065 134.07 138.555 137.56 138.545 141.35C138.525 145.47 134.915 149.05 130.865 148.95C126.775 148.86 123.445 145.21 123.635 141.03C123.805 137.02 127.125 133.93 131.185 134Z" fill="#ECF8F6"/>
<path d="M33.0369 334V310.727H40.9006C42.7188 310.727 44.2112 311.038 45.3778 311.659C46.5445 312.273 47.4081 313.117 47.9688 314.193C48.5294 315.269 48.8097 316.492 48.8097 317.864C48.8097 319.235 48.5294 320.451 47.9688 321.511C47.4081 322.572 46.5483 323.405 45.3892 324.011C44.2301 324.61 42.7491 324.909 40.946 324.909H34.5824V322.364H40.8551C42.0975 322.364 43.0975 322.182 43.8551 321.818C44.6203 321.455 45.1733 320.939 45.5142 320.273C45.8627 319.598 46.0369 318.795 46.0369 317.864C46.0369 316.932 45.8627 316.117 45.5142 315.42C45.1657 314.723 44.6089 314.186 43.8438 313.807C43.0786 313.42 42.0672 313.227 40.8097 313.227H35.8551V334H33.0369ZM43.9915 323.545L49.7188 334H46.446L40.8097 323.545H43.9915ZM60.2727 334.364C58.5909 334.364 57.1402 333.992 55.9205 333.25C54.7083 332.5 53.7727 331.455 53.1136 330.114C52.4621 328.765 52.1364 327.197 52.1364 325.409C52.1364 323.621 52.4621 322.045 53.1136 320.682C53.7727 319.311 54.6894 318.242 55.8636 317.477C57.0455 316.705 58.4242 316.318 60 316.318C60.9091 316.318 61.8068 316.47 62.6932 316.773C63.5795 317.076 64.3864 317.568 65.1136 318.25C65.8409 318.924 66.4205 319.818 66.8523 320.932C67.2841 322.045 67.5 323.417 67.5 325.045V326.182H54.0455V323.864H64.7727C64.7727 322.879 64.5758 322 64.1818 321.227C63.7955 320.455 63.2424 319.845 62.5227 319.398C61.8106 318.951 60.9697 318.727 60 318.727C58.9318 318.727 58.0076 318.992 57.2273 319.523C56.4545 320.045 55.8598 320.727 55.4432 321.568C55.0265 322.409 54.8182 323.311 54.8182 324.273V325.818C54.8182 327.136 55.0455 328.254 55.5 329.17C55.9621 330.08 56.6023 330.773 57.4205 331.25C58.2386 331.72 59.1894 331.955 60.2727 331.955C60.9773 331.955 61.6136 331.856 62.1818 331.659C62.7576 331.455 63.2538 331.152 63.6705 330.75C64.0871 330.341 64.4091 329.833 64.6364 329.227L67.2273 329.955C66.9545 330.833 66.4962 331.606 65.8523 332.273C65.2083 332.932 64.4129 333.447 63.4659 333.818C62.5189 334.182 61.4545 334.364 60.2727 334.364ZM71.5795 334V316.545H74.1705V319.273H74.3977C74.7614 318.341 75.3485 317.617 76.1591 317.102C76.9697 316.58 77.9432 316.318 79.0795 316.318C80.2311 316.318 81.1894 316.58 81.9545 317.102C82.7273 317.617 83.3295 318.341 83.7614 319.273H83.9432C84.3902 318.371 85.0606 317.655 85.9545 317.125C86.8485 316.587 87.9205 316.318 89.1705 316.318C90.7311 316.318 92.0076 316.807 93 317.784C93.9924 318.754 94.4886 320.265 94.4886 322.318V334H91.8068V322.318C91.8068 321.03 91.4545 320.11 90.75 319.557C90.0455 319.004 89.2159 318.727 88.2614 318.727C87.0341 318.727 86.0833 319.098 85.4091 319.841C84.7348 320.576 84.3977 321.508 84.3977 322.636V334H81.6705V322.045C81.6705 321.053 81.3485 320.254 80.7045 319.648C80.0606 319.034 79.2311 318.727 78.2159 318.727C77.5189 318.727 76.8674 318.913 76.2614 319.284C75.6629 319.655 75.178 320.17 74.8068 320.83C74.4432 321.481 74.2614 322.235 74.2614 323.091V334H71.5795ZM106.483 334.364C104.907 334.364 103.525 333.989 102.335 333.239C101.153 332.489 100.229 331.439 99.5625 330.091C98.9034 328.742 98.5739 327.167 98.5739 325.364C98.5739 323.545 98.9034 321.958 99.5625 320.602C100.229 319.246 101.153 318.193 102.335 317.443C103.525 316.693 104.907 316.318 106.483 316.318C108.059 316.318 109.438 316.693 110.619 317.443C111.809 318.193 112.733 319.246 113.392 320.602C114.059 321.958 114.392 323.545 114.392 325.364C114.392 327.167 114.059 328.742 113.392 330.091C112.733 331.439 111.809 332.489 110.619 333.239C109.438 333.989 108.059 334.364 106.483 334.364ZM106.483 331.955C107.68 331.955 108.665 331.648 109.438 331.034C110.21 330.42 110.782 329.614 111.153 328.614C111.525 327.614 111.71 326.53 111.71 325.364C111.71 324.197 111.525 323.11 111.153 322.102C110.782 321.095 110.21 320.28 109.438 319.659C108.665 319.038 107.68 318.727 106.483 318.727C105.286 318.727 104.301 319.038 103.528 319.659C102.756 320.28 102.184 321.095 101.812 322.102C101.441 323.11 101.256 324.197 101.256 325.364C101.256 326.53 101.441 327.614 101.812 328.614C102.184 329.614 102.756 330.42 103.528 331.034C104.301 331.648 105.286 331.955 106.483 331.955ZM126.077 316.545V318.818H117.031V316.545H126.077ZM119.668 312.364H122.349V329C122.349 329.758 122.459 330.326 122.679 330.705C122.906 331.076 123.194 331.326 123.543 331.455C123.899 331.576 124.274 331.636 124.668 331.636C124.963 331.636 125.205 331.621 125.395 331.591C125.584 331.553 125.736 331.523 125.849 331.5L126.395 333.909C126.213 333.977 125.959 334.045 125.634 334.114C125.308 334.189 124.895 334.227 124.395 334.227C123.637 334.227 122.895 334.064 122.168 333.739C121.448 333.413 120.849 332.917 120.372 332.25C119.902 331.583 119.668 330.742 119.668 329.727V312.364ZM137.241 334.364C135.56 334.364 134.109 333.992 132.889 333.25C131.677 332.5 130.741 331.455 130.082 330.114C129.431 328.765 129.105 327.197 129.105 325.409C129.105 323.621 129.431 322.045 130.082 320.682C130.741 319.311 131.658 318.242 132.832 317.477C134.014 316.705 135.393 316.318 136.969 316.318C137.878 316.318 138.776 316.47 139.662 316.773C140.548 317.076 141.355 317.568 142.082 318.25C142.81 318.924 143.389 319.818 143.821 320.932C144.253 322.045 144.469 323.417 144.469 325.045V326.182H131.014V323.864H141.741C141.741 322.879 141.545 322 141.151 321.227C140.764 320.455 140.211 319.845 139.491 319.398C138.779 318.951 137.938 318.727 136.969 318.727C135.901 318.727 134.976 318.992 134.196 319.523C133.423 320.045 132.829 320.727 132.412 321.568C131.995 322.409 131.787 323.311 131.787 324.273V325.818C131.787 327.136 132.014 328.254 132.469 329.17C132.931 330.08 133.571 330.773 134.389 331.25C135.207 331.72 136.158 331.955 137.241 331.955C137.946 331.955 138.582 331.856 139.151 331.659C139.726 331.455 140.223 331.152 140.639 330.75C141.056 330.341 141.378 329.833 141.605 329.227L144.196 329.955C143.923 330.833 143.465 331.606 142.821 332.273C142.177 332.932 141.382 333.447 140.435 333.818C139.488 334.182 138.423 334.364 137.241 334.364ZM165.321 316.545V318.818H155.912V316.545H165.321ZM158.73 334V314.136C158.73 313.136 158.965 312.303 159.435 311.636C159.904 310.97 160.514 310.47 161.264 310.136C162.014 309.803 162.806 309.636 163.639 309.636C164.298 309.636 164.836 309.689 165.253 309.795C165.67 309.902 165.98 310 166.185 310.091L165.412 312.409C165.276 312.364 165.086 312.307 164.844 312.239C164.609 312.17 164.298 312.136 163.912 312.136C163.026 312.136 162.385 312.36 161.991 312.807C161.605 313.254 161.412 313.909 161.412 314.773V334H158.73ZM169.08 334V316.545H171.761V334H169.08ZM170.443 313.636C169.92 313.636 169.47 313.458 169.091 313.102C168.72 312.746 168.534 312.318 168.534 311.818C168.534 311.318 168.72 310.89 169.091 310.534C169.47 310.178 169.92 310 170.443 310C170.966 310 171.413 310.178 171.784 310.534C172.163 310.89 172.352 311.318 172.352 311.818C172.352 312.318 172.163 312.746 171.784 313.102C171.413 313.458 170.966 313.636 170.443 313.636ZM176.673 334V316.545H179.264V319.182H179.446C179.764 318.318 180.34 317.617 181.173 317.08C182.007 316.542 182.946 316.273 183.991 316.273C184.188 316.273 184.435 316.277 184.73 316.284C185.026 316.292 185.249 316.303 185.401 316.318V319.045C185.31 319.023 185.101 318.989 184.776 318.943C184.457 318.89 184.12 318.864 183.764 318.864C182.916 318.864 182.158 319.042 181.491 319.398C180.832 319.746 180.31 320.231 179.923 320.852C179.545 321.466 179.355 322.167 179.355 322.955V334H176.673ZM200.943 320.455L198.534 321.136C198.383 320.735 198.159 320.345 197.864 319.966C197.576 319.58 197.182 319.261 196.682 319.011C196.182 318.761 195.542 318.636 194.761 318.636C193.693 318.636 192.803 318.883 192.091 319.375C191.386 319.86 191.034 320.477 191.034 321.227C191.034 321.894 191.277 322.42 191.761 322.807C192.246 323.193 193.004 323.515 194.034 323.773L196.625 324.409C198.186 324.788 199.348 325.367 200.114 326.148C200.879 326.92 201.261 327.917 201.261 329.136C201.261 330.136 200.973 331.03 200.398 331.818C199.83 332.606 199.034 333.227 198.011 333.682C196.989 334.136 195.799 334.364 194.443 334.364C192.663 334.364 191.189 333.977 190.023 333.205C188.856 332.432 188.117 331.303 187.807 329.818L190.352 329.182C190.595 330.121 191.053 330.826 191.727 331.295C192.409 331.765 193.299 332 194.398 332C195.648 332 196.64 331.735 197.375 331.205C198.117 330.667 198.489 330.023 198.489 329.273C198.489 328.667 198.277 328.159 197.852 327.75C197.428 327.333 196.777 327.023 195.898 326.818L192.989 326.136C191.39 325.758 190.216 325.17 189.466 324.375C188.723 323.572 188.352 322.568 188.352 321.364C188.352 320.379 188.629 319.508 189.182 318.75C189.742 317.992 190.504 317.398 191.466 316.966C192.436 316.534 193.534 316.318 194.761 316.318C196.489 316.318 197.845 316.697 198.83 317.455C199.822 318.212 200.527 319.212 200.943 320.455ZM212.889 316.545V318.818H203.844V316.545H212.889ZM206.48 312.364H209.162V329C209.162 329.758 209.272 330.326 209.491 330.705C209.719 331.076 210.007 331.326 210.355 331.455C210.711 331.576 211.086 331.636 211.48 331.636C211.776 331.636 212.018 331.621 212.207 331.591C212.397 331.553 212.548 331.523 212.662 331.5L213.207 333.909C213.026 333.977 212.772 334.045 212.446 334.114C212.12 334.189 211.707 334.227 211.207 334.227C210.45 334.227 209.707 334.064 208.98 333.739C208.26 333.413 207.662 332.917 207.185 332.25C206.715 331.583 206.48 330.742 206.48 329.727V312.364ZM54.0611 394.364C52.4247 394.364 51.0156 393.977 49.8338 393.205C48.652 392.432 47.7429 391.367 47.1065 390.011C46.4702 388.655 46.152 387.106 46.152 385.364C46.152 383.591 46.4777 382.027 47.1293 380.67C47.7884 379.307 48.705 378.242 49.8793 377.477C51.0611 376.705 52.4399 376.318 54.0156 376.318C55.2429 376.318 56.349 376.545 57.3338 377C58.3187 377.455 59.1255 378.091 59.7543 378.909C60.383 379.727 60.7732 380.682 60.9247 381.773H58.2429C58.0384 380.977 57.5838 380.273 56.8793 379.659C56.1823 379.038 55.2429 378.727 54.0611 378.727C53.0156 378.727 52.099 379 51.3111 379.545C50.5308 380.083 49.9209 380.845 49.4815 381.83C49.0497 382.807 48.8338 383.955 48.8338 385.273C48.8338 386.621 49.0459 387.795 49.4702 388.795C49.902 389.795 50.508 390.572 51.2884 391.125C52.0762 391.678 53.0005 391.955 54.0611 391.955C54.758 391.955 55.3906 391.833 55.9588 391.591C56.527 391.348 57.008 391 57.402 390.545C57.7959 390.091 58.0762 389.545 58.2429 388.909H60.9247C60.7732 389.939 60.3982 390.867 59.7997 391.693C59.2088 392.511 58.4247 393.163 57.4474 393.648C56.4777 394.125 55.349 394.364 54.0611 394.364ZM71.9361 394.364C70.3603 394.364 68.9777 393.989 67.7884 393.239C66.6065 392.489 65.6823 391.439 65.0156 390.091C64.3565 388.742 64.027 387.167 64.027 385.364C64.027 383.545 64.3565 381.958 65.0156 380.602C65.6823 379.246 66.6065 378.193 67.7884 377.443C68.9777 376.693 70.3603 376.318 71.9361 376.318C73.5118 376.318 74.8906 376.693 76.0724 377.443C77.2618 378.193 78.1861 379.246 78.8452 380.602C79.5118 381.958 79.8452 383.545 79.8452 385.364C79.8452 387.167 79.5118 388.742 78.8452 390.091C78.1861 391.439 77.2618 392.489 76.0724 393.239C74.8906 393.989 73.5118 394.364 71.9361 394.364ZM71.9361 391.955C73.133 391.955 74.1179 391.648 74.8906 391.034C75.6634 390.42 76.2353 389.614 76.6065 388.614C76.9777 387.614 77.1634 386.53 77.1634 385.364C77.1634 384.197 76.9777 383.11 76.6065 382.102C76.2353 381.095 75.6634 380.28 74.8906 379.659C74.1179 379.038 73.133 378.727 71.9361 378.727C70.7391 378.727 69.7543 379.038 68.9815 379.659C68.2088 380.28 67.6368 381.095 67.2656 382.102C66.8944 383.11 66.7088 384.197 66.7088 385.364C66.7088 386.53 66.8944 387.614 67.2656 388.614C67.6368 389.614 68.2088 390.42 68.9815 391.034C69.7543 391.648 70.7391 391.955 71.9361 391.955ZM83.9389 394V376.545H86.5298V379.273H86.7571C87.1207 378.341 87.7079 377.617 88.5185 377.102C89.3291 376.58 90.3026 376.318 91.4389 376.318C92.5904 376.318 93.5488 376.58 94.3139 377.102C95.0866 377.617 95.6889 378.341 96.1207 379.273H96.3026C96.7495 378.371 97.42 377.655 98.3139 377.125C99.2079 376.587 100.28 376.318 101.53 376.318C103.09 376.318 104.367 376.807 105.359 377.784C106.352 378.754 106.848 380.265 106.848 382.318V394H104.166V382.318C104.166 381.03 103.814 380.11 103.109 379.557C102.405 379.004 101.575 378.727 100.621 378.727C99.3935 378.727 98.4427 379.098 97.7685 379.841C97.0942 380.576 96.7571 381.508 96.7571 382.636V394H94.0298V382.045C94.0298 381.053 93.7079 380.254 93.0639 379.648C92.42 379.034 91.5904 378.727 90.5753 378.727C89.8783 378.727 89.2268 378.913 88.6207 379.284C88.0223 379.655 87.5374 380.17 87.1662 380.83C86.8026 381.481 86.6207 382.235 86.6207 383.091V394H83.9389ZM111.751 400.545V376.545H114.342V379.318H114.661C114.857 379.015 115.13 378.629 115.479 378.159C115.835 377.682 116.342 377.258 117.001 376.886C117.668 376.508 118.57 376.318 119.706 376.318C121.176 376.318 122.471 376.686 123.592 377.42C124.714 378.155 125.589 379.197 126.217 380.545C126.846 381.894 127.161 383.485 127.161 385.318C127.161 387.167 126.846 388.769 126.217 390.125C125.589 391.473 124.717 392.519 123.604 393.261C122.49 393.996 121.206 394.364 119.751 394.364C118.63 394.364 117.732 394.178 117.058 393.807C116.384 393.428 115.865 393 115.501 392.523C115.138 392.038 114.857 391.636 114.661 391.318H114.433V400.545H111.751ZM114.388 385.273C114.388 386.591 114.581 387.754 114.967 388.761C115.354 389.761 115.918 390.545 116.661 391.114C117.403 391.674 118.312 391.955 119.388 391.955C120.509 391.955 121.445 391.659 122.195 391.068C122.952 390.47 123.52 389.667 123.899 388.659C124.286 387.644 124.479 386.515 124.479 385.273C124.479 384.045 124.289 382.939 123.911 381.955C123.539 380.962 122.975 380.178 122.217 379.602C121.467 379.019 120.524 378.727 119.388 378.727C118.297 378.727 117.38 379.004 116.638 379.557C115.895 380.102 115.335 380.867 114.956 381.852C114.577 382.83 114.388 383.97 114.388 385.273ZM136.388 394.409C135.282 394.409 134.278 394.201 133.376 393.784C132.475 393.36 131.759 392.75 131.229 391.955C130.698 391.152 130.433 390.182 130.433 389.045C130.433 388.045 130.63 387.235 131.024 386.614C131.418 385.985 131.945 385.492 132.604 385.136C133.263 384.78 133.99 384.515 134.786 384.341C135.589 384.159 136.395 384.015 137.206 383.909C138.267 383.773 139.126 383.67 139.786 383.602C140.452 383.527 140.937 383.402 141.24 383.227C141.551 383.053 141.706 382.75 141.706 382.318V382.227C141.706 381.106 141.399 380.235 140.786 379.614C140.179 378.992 139.259 378.682 138.024 378.682C136.744 378.682 135.74 378.962 135.013 379.523C134.286 380.083 133.774 380.682 133.479 381.318L130.933 380.409C131.388 379.348 131.994 378.523 132.751 377.932C133.517 377.333 134.35 376.917 135.251 376.682C136.161 376.439 137.054 376.318 137.933 376.318C138.494 376.318 139.138 376.386 139.865 376.523C140.6 376.652 141.308 376.92 141.99 377.33C142.679 377.739 143.251 378.356 143.706 379.182C144.161 380.008 144.388 381.114 144.388 382.5V394H141.706V391.636H141.57C141.388 392.015 141.085 392.42 140.661 392.852C140.236 393.284 139.672 393.652 138.967 393.955C138.263 394.258 137.403 394.409 136.388 394.409ZM136.797 392C137.857 392 138.751 391.792 139.479 391.375C140.214 390.958 140.767 390.42 141.138 389.761C141.517 389.102 141.706 388.409 141.706 387.682V385.227C141.592 385.364 141.342 385.489 140.956 385.602C140.577 385.708 140.138 385.803 139.638 385.886C139.145 385.962 138.664 386.03 138.195 386.091C137.732 386.144 137.357 386.189 137.07 386.227C136.373 386.318 135.721 386.466 135.115 386.67C134.517 386.867 134.032 387.167 133.661 387.568C133.297 387.962 133.115 388.5 133.115 389.182C133.115 390.114 133.46 390.818 134.149 391.295C134.846 391.765 135.729 392 136.797 392ZM151.964 383.5V394H149.283V376.545H151.874V379.273H152.101C152.51 378.386 153.131 377.674 153.964 377.136C154.798 376.591 155.874 376.318 157.192 376.318C158.374 376.318 159.408 376.561 160.294 377.045C161.18 377.523 161.87 378.25 162.362 379.227C162.855 380.197 163.101 381.424 163.101 382.909V394H160.419V383.091C160.419 381.72 160.063 380.652 159.351 379.886C158.639 379.114 157.661 378.727 156.419 378.727C155.563 378.727 154.798 378.913 154.124 379.284C153.457 379.655 152.93 380.197 152.544 380.909C152.158 381.621 151.964 382.485 151.964 383.5ZM168.001 394V376.545H170.683V394H168.001ZM169.365 373.636C168.842 373.636 168.392 373.458 168.013 373.102C167.642 372.746 167.456 372.318 167.456 371.818C167.456 371.318 167.642 370.89 168.013 370.534C168.392 370.178 168.842 370 169.365 370C169.888 370 170.335 370.178 170.706 370.534C171.085 370.89 171.274 371.318 171.274 371.818C171.274 372.318 171.085 372.746 170.706 373.102C170.335 373.458 169.888 373.636 169.365 373.636ZM182.913 394.364C181.232 394.364 179.781 393.992 178.561 393.25C177.349 392.5 176.413 391.455 175.754 390.114C175.103 388.765 174.777 387.197 174.777 385.409C174.777 383.621 175.103 382.045 175.754 380.682C176.413 379.311 177.33 378.242 178.504 377.477C179.686 376.705 181.065 376.318 182.641 376.318C183.55 376.318 184.447 376.47 185.334 376.773C186.22 377.076 187.027 377.568 187.754 378.25C188.482 378.924 189.061 379.818 189.493 380.932C189.925 382.045 190.141 383.417 190.141 385.045V386.182H176.686V383.864H187.413C187.413 382.879 187.216 382 186.822 381.227C186.436 380.455 185.883 379.845 185.163 379.398C184.451 378.951 183.61 378.727 182.641 378.727C181.572 378.727 180.648 378.992 179.868 379.523C179.095 380.045 178.5 380.727 178.084 381.568C177.667 382.409 177.459 383.311 177.459 384.273V385.818C177.459 387.136 177.686 388.254 178.141 389.17C178.603 390.08 179.243 390.773 180.061 391.25C180.879 391.72 181.83 391.955 182.913 391.955C183.618 391.955 184.254 391.856 184.822 391.659C185.398 391.455 185.894 391.152 186.311 390.75C186.728 390.341 187.05 389.833 187.277 389.227L189.868 389.955C189.595 390.833 189.137 391.606 188.493 392.273C187.849 392.932 187.054 393.447 186.107 393.818C185.16 394.182 184.095 394.364 182.913 394.364ZM206.584 380.455L204.175 381.136C204.023 380.735 203.8 380.345 203.504 379.966C203.216 379.58 202.822 379.261 202.322 379.011C201.822 378.761 201.182 378.636 200.402 378.636C199.334 378.636 198.444 378.883 197.732 379.375C197.027 379.86 196.675 380.477 196.675 381.227C196.675 381.894 196.917 382.42 197.402 382.807C197.887 383.193 198.644 383.515 199.675 383.773L202.266 384.409C203.826 384.788 204.989 385.367 205.754 386.148C206.519 386.92 206.902 387.917 206.902 389.136C206.902 390.136 206.614 391.03 206.038 391.818C205.47 392.606 204.675 393.227 203.652 393.682C202.629 394.136 201.44 394.364 200.084 394.364C198.304 394.364 196.83 393.977 195.663 393.205C194.497 392.432 193.758 391.303 193.447 389.818L195.993 389.182C196.235 390.121 196.694 390.826 197.368 391.295C198.05 391.765 198.94 392 200.038 392C201.288 392 202.281 391.735 203.016 391.205C203.758 390.667 204.129 390.023 204.129 389.273C204.129 388.667 203.917 388.159 203.493 387.75C203.069 387.333 202.417 387.023 201.538 386.818L198.629 386.136C197.031 385.758 195.857 385.17 195.107 384.375C194.364 383.572 193.993 382.568 193.993 381.364C193.993 380.379 194.269 379.508 194.822 378.75C195.383 377.992 196.144 377.398 197.107 376.966C198.076 376.534 199.175 376.318 200.402 376.318C202.129 376.318 203.485 376.697 204.47 377.455C205.463 378.212 206.167 379.212 206.584 380.455Z" fill="#5A5A5A"/>
</svg>
