<svg width="367" height="391" viewBox="0 0 367 391" fill="none" xmlns="http://www.w3.org/2000/svg">
<circle cx="183.5" cy="126.5" r="87.5" fill="#F4F4F4"/>
<circle cx="183.5" cy="126.5" r="126" stroke="#E3E0E0" stroke-dasharray="4 4"/>
<path d="M184.269 77.7663C179.619 77.5563 175.929 81.0663 175.939 85.6863C175.949 90.1363 179.359 93.7063 183.689 93.7963C187.949 93.8963 191.609 90.3663 191.789 85.9963C191.979 81.5463 188.699 77.9663 184.269 77.7663ZM183.949 89.5763C181.809 89.6263 180.179 88.3963 180.139 85.9563C180.079 83.3963 181.359 81.8763 183.969 81.9063C186.359 81.9263 187.419 83.4663 187.589 85.5463C187.509 88.0963 186.119 89.5363 183.949 89.5763Z" fill="#217BF4"/>
<path d="M245.59 159.106C241.14 158.416 237.43 159.896 234.44 163.276C233.4 164.446 232.87 166.246 230.64 165.856C226.47 165.136 222.97 166.986 219.61 169.376C218.96 162.406 216 157.736 208.91 156.666C207.6 156.466 206.88 155.716 206.33 154.606C204.72 151.346 202.27 148.986 198.91 147.536C197.88 147.096 197.11 146.646 196.81 145.156C195.68 139.506 197.28 134.466 199.62 129.486C200.31 128.026 201.04 127.846 202.18 128.936C203.26 129.976 204.36 130.976 205.43 132.016C208.78 135.266 211.77 134.766 213.41 130.456C214.4 127.836 215.09 125.066 215.63 122.306C217.35 113.506 214.74 108.186 206.53 104.766C203.75 103.596 203.47 101.996 203.46 99.5063C203.4 84.3763 198.26 70.8863 189.8 58.5563C185.63 52.4863 182.1 52.4963 177.95 58.4963C169.43 70.8163 164.28 84.3363 164.24 99.4463C164.23 102.646 163.27 104.006 160.26 105.086C154.98 106.996 151.96 111.176 151.54 116.806C151.2 121.346 152.47 125.716 154.07 129.926C155.95 134.916 158.76 135.456 162.51 131.686C163.56 130.636 164.73 129.696 165.86 128.726C166.64 128.056 167.4 128.096 167.81 129.096C169.87 134.086 172.14 138.846 170.85 144.746C170.09 148.186 167.2 147.576 165.63 149.236C164.14 150.806 162.56 152.276 161.54 154.206C160.9 155.416 160.29 156.446 158.72 156.686C151.62 157.746 148.71 162.486 148.04 169.496C144.99 167.266 142.28 165.486 138.95 165.826C136.35 166.096 134.77 165.306 133.11 163.206C130.22 159.546 126.11 158.286 121.48 159.236C120.2 159.496 118.74 160.036 119.04 161.806C119.31 163.466 120.48 163.846 122.04 163.426C122.83 163.216 123.67 163.036 124.48 163.096C129.82 163.426 131.62 166.906 128.79 171.306C127.79 172.866 127.18 174.546 127.03 176.426C126.92 177.856 126.89 179.286 128.54 179.626C130.27 179.996 130.92 178.506 131.08 177.206C131.45 174.116 132.91 171.936 135.72 170.626C138.79 169.196 141.48 169.866 144.05 171.906C146.83 174.106 144.01 175.656 143.5 177.486C143.23 178.446 142.85 179.376 142.66 180.356C142.36 181.896 142.3 183.506 144.32 183.866C146.15 184.196 146.48 182.706 146.74 181.376C147.35 178.216 148.87 175.826 152.09 174.766C153.59 174.276 155.76 174.656 156.27 172.676C156.89 170.226 154.75 170.246 153.18 169.826C152.42 169.626 152.35 168.866 152.41 168.196C152.62 165.756 153.56 163.636 155.59 162.226C157.2 161.096 158.76 159.956 160.7 162.306C161.97 163.836 163.44 162.736 163.99 161.006C164.28 160.066 164.18 159.006 164.47 158.056C165.52 154.676 167.67 152.086 171.1 151.166C174.16 150.336 174.66 153.646 176.04 155.236C183.94 164.346 183.88 164.406 192.09 154.546C195.67 150.246 198.43 150.306 201.62 154.776C202.71 156.296 203.18 158.026 203.54 159.856C203.98 162.116 204.4 164.346 207.63 161.786C210.61 159.436 212.62 162.226 213.92 164.346C215.12 166.286 217.53 169.216 212.7 170.246C211.82 170.436 211.31 171.136 211.25 172.066C211.17 173.296 211.95 173.956 213 174.106C217.73 174.776 220.5 177.366 221.13 182.146C221.28 183.306 221.96 183.946 223.13 183.896C224.62 183.836 225.19 182.776 225.09 181.536C224.99 180.226 224.54 178.956 224.22 177.676C223.74 175.716 220.67 173.996 223.82 171.716C226.65 169.656 229.53 169.186 232.65 170.966C234.99 172.296 236.19 174.336 236.58 176.986C236.77 178.306 237.28 179.896 238.95 179.646C240.97 179.346 240.65 177.566 240.56 176.056C240.43 173.786 239.6 171.696 238.08 170.186C235.48 167.626 237.15 166.076 239.09 164.646C240.88 163.336 243 162.656 245.22 163.266C246.91 163.726 248.36 163.776 248.6 161.716C248.83 159.676 247.02 159.326 245.59 159.106ZM203.41 108.076C212.79 111.586 214.34 117.916 209.24 129.016C197.45 124.896 203.82 115.796 203.41 108.076ZM158.73 128.956C152.62 117.936 155.84 109.666 164.14 108.226C164.3 110.096 164.21 111.806 164.63 113.386C166.38 120.036 166.5 126.016 158.73 128.956ZM183.84 58.6663C186.45 58.5063 187.42 62.4063 189.27 65.4363H178.95C179.87 62.4163 181.14 58.8263 183.84 58.6663ZM168.52 110.886C167.49 97.9763 168.68 85.3763 174.18 73.3863C175.54 70.4163 177.11 69.1963 180.51 69.2263C192.7 69.3263 192.76 69.1663 196.35 81.1063C197.5 84.9163 198.4 88.8263 199 92.7463C199.5 96.0163 199.41 99.3663 199.61 103.376C199.32 106.846 198.83 110.976 198.68 115.116C198.55 118.616 196.88 119.456 193.62 119.336C184.78 119.026 185.83 120.446 185.73 111.226C185.71 109.736 185.74 108.236 185.71 106.736C185.69 105.396 185.72 103.736 183.96 103.686C181.81 103.616 181.96 105.496 181.93 106.956C181.88 109.786 181.82 112.616 181.94 115.436C182.04 118.076 181.22 119.246 178.29 119.346C169.45 119.666 169.22 119.726 168.52 110.886ZM190.06 150.596C183.98 158.566 183.71 158.606 177.67 150.636C177.57 150.506 177.49 150.356 177.38 150.226C174.86 147.136 173.91 143.466 175.7 140.006C177.54 136.446 181.47 139.066 184.33 138.126C186.89 139.006 190.41 136.566 192.01 139.946C193.81 143.726 192.57 147.306 190.06 150.596ZM188.55 134.026H183.58C181.43 134.026 179.28 134.046 177.13 134.006C176.31 133.996 175.41 134.026 174.7 133.696C173.3 133.046 170.36 124.596 171.28 124.276C174.44 123.206 177.86 123.256 180.98 124.136C182.75 124.646 181.71 127.076 181.94 128.636C182.13 129.876 182.43 131.046 183.89 131.026C185.38 130.996 185.53 129.736 185.71 128.536C185.94 126.996 184.87 124.536 186.74 124.116C189.58 123.476 192.64 123.816 195.61 123.806C196.42 123.806 196.52 124.426 196.59 125.176C196.98 129.636 193.05 134.006 188.55 134.026Z" fill="#217BF4"/>
<path d="M184.269 77.7663C179.619 77.5563 175.929 81.0663 175.939 85.6863C175.949 90.1363 179.359 93.7063 183.689 93.7963C187.949 93.8963 191.609 90.3663 191.789 85.9963C191.979 81.5463 188.699 77.9663 184.269 77.7663ZM183.949 89.5763C181.809 89.6263 180.179 88.3963 180.139 85.9563C180.079 83.3963 181.359 81.8763 183.969 81.9063C186.359 81.9263 187.419 83.4663 187.589 85.5463C187.509 88.0963 186.119 89.5363 183.949 89.5763Z" fill="#EEF9F7"/>
<path d="M184.269 77.7663C179.619 77.5563 175.929 81.0663 175.939 85.6863C175.949 90.1363 179.359 93.7063 183.689 93.7963C187.949 93.8963 191.609 90.3663 191.789 85.9963C191.979 81.5463 188.699 77.9663 184.269 77.7663ZM183.949 89.5763C181.809 89.6263 180.179 88.3963 180.139 85.9563C180.079 83.3963 181.359 81.8763 183.969 81.9063C186.359 81.9263 187.419 83.4663 187.589 85.5463C187.509 88.0963 186.119 89.5363 183.949 89.5763Z" fill="#217BF4"/>
<path d="M2.84943 328V304.727H5.66761V315.091H18.0767V304.727H20.8949V328H18.0767V317.591H5.66761V328H2.84943ZM26.1733 328V310.545H28.8551V328H26.1733ZM27.5369 307.636C27.0142 307.636 26.5634 307.458 26.1847 307.102C25.8134 306.746 25.6278 306.318 25.6278 305.818C25.6278 305.318 25.8134 304.89 26.1847 304.534C26.5634 304.178 27.0142 304 27.5369 304C28.0597 304 28.5066 304.178 28.8778 304.534C29.2566 304.89 29.446 305.318 29.446 305.818C29.446 306.318 29.2566 306.746 28.8778 307.102C28.5066 307.458 28.0597 307.636 27.5369 307.636ZM40.8125 334.909C39.517 334.909 38.4034 334.742 37.4716 334.409C36.5398 334.083 35.7633 333.652 35.142 333.114C34.5284 332.583 34.0398 332.015 33.6761 331.409L35.8125 329.909C36.0549 330.227 36.3617 330.591 36.733 331C37.1042 331.417 37.6117 331.777 38.2557 332.08C38.9072 332.39 39.7595 332.545 40.8125 332.545C42.2216 332.545 43.3845 332.205 44.3011 331.523C45.2178 330.841 45.6761 329.773 45.6761 328.318V324.773H45.4489C45.2519 325.091 44.9716 325.485 44.608 325.955C44.2519 326.417 43.7367 326.83 43.0625 327.193C42.3958 327.549 41.4943 327.727 40.358 327.727C38.9489 327.727 37.6837 327.394 36.5625 326.727C35.4489 326.061 34.5663 325.091 33.9148 323.818C33.2708 322.545 32.9489 321 32.9489 319.182C32.9489 317.394 33.2633 315.837 33.892 314.511C34.5208 313.178 35.3958 312.148 36.517 311.42C37.6383 310.686 38.9337 310.318 40.4034 310.318C41.5398 310.318 42.4413 310.508 43.108 310.886C43.7822 311.258 44.2973 311.682 44.6534 312.159C45.017 312.629 45.2973 313.015 45.4943 313.318H45.767V310.545H48.358V328.5C48.358 330 48.017 331.22 47.3352 332.159C46.661 333.106 45.7519 333.799 44.608 334.239C43.4716 334.686 42.2064 334.909 40.8125 334.909ZM40.7216 325.318C41.7973 325.318 42.7064 325.072 43.4489 324.58C44.1913 324.087 44.7557 323.379 45.142 322.455C45.5284 321.53 45.7216 320.424 45.7216 319.136C45.7216 317.879 45.5322 316.769 45.1534 315.807C44.7746 314.845 44.214 314.091 43.4716 313.545C42.7292 313 41.8125 312.727 40.7216 312.727C39.5852 312.727 38.6383 313.015 37.8807 313.591C37.1307 314.167 36.5663 314.939 36.1875 315.909C35.8163 316.879 35.6307 317.955 35.6307 319.136C35.6307 320.348 35.8201 321.42 36.1989 322.352C36.5852 323.277 37.1534 324.004 37.9034 324.534C38.661 325.057 39.6004 325.318 40.7216 325.318ZM55.9489 317.5V328H53.267V304.727H55.9489V313.273H56.1761C56.5852 312.371 57.1989 311.655 58.017 311.125C58.8428 310.587 59.9413 310.318 61.3125 310.318C62.5019 310.318 63.5436 310.557 64.4375 311.034C65.3314 311.504 66.0246 312.227 66.517 313.205C67.017 314.174 67.267 315.409 67.267 316.909V328H64.5852V317.091C64.5852 315.705 64.2254 314.633 63.5057 313.875C62.7936 313.11 61.8049 312.727 60.5398 312.727C59.661 312.727 58.8731 312.913 58.1761 313.284C57.4867 313.655 56.9413 314.197 56.5398 314.909C56.1458 315.621 55.9489 316.485 55.9489 317.5ZM88.2188 334.909C86.9233 334.909 85.8097 334.742 84.8778 334.409C83.946 334.083 83.1695 333.652 82.5483 333.114C81.9347 332.583 81.446 332.015 81.0824 331.409L83.2188 329.909C83.4612 330.227 83.768 330.591 84.1392 331C84.5104 331.417 85.018 331.777 85.6619 332.08C86.3134 332.39 87.1657 332.545 88.2188 332.545C89.6278 332.545 90.7907 332.205 91.7074 331.523C92.6241 330.841 93.0824 329.773 93.0824 328.318V324.773H92.8551C92.6581 325.091 92.3778 325.485 92.0142 325.955C91.6581 326.417 91.143 326.83 90.4688 327.193C89.8021 327.549 88.9006 327.727 87.7642 327.727C86.3551 327.727 85.09 327.394 83.9688 326.727C82.8551 326.061 81.9725 325.091 81.321 323.818C80.6771 322.545 80.3551 321 80.3551 319.182C80.3551 317.394 80.6695 315.837 81.2983 314.511C81.9271 313.178 82.8021 312.148 83.9233 311.42C85.0445 310.686 86.34 310.318 87.8097 310.318C88.946 310.318 89.8475 310.508 90.5142 310.886C91.1884 311.258 91.7036 311.682 92.0597 312.159C92.4233 312.629 92.7036 313.015 92.9006 313.318H93.1733V310.545H95.7642V328.5C95.7642 330 95.4233 331.22 94.7415 332.159C94.0672 333.106 93.1581 333.799 92.0142 334.239C90.8778 334.686 89.6127 334.909 88.2188 334.909ZM88.1278 325.318C89.2036 325.318 90.1127 325.072 90.8551 324.58C91.5975 324.087 92.1619 323.379 92.5483 322.455C92.9347 321.53 93.1278 320.424 93.1278 319.136C93.1278 317.879 92.9384 316.769 92.5597 315.807C92.1809 314.845 91.6203 314.091 90.8778 313.545C90.1354 313 89.2188 312.727 88.1278 312.727C86.9915 312.727 86.0445 313.015 85.2869 313.591C84.5369 314.167 83.9725 314.939 83.5938 315.909C83.2225 316.879 83.0369 317.955 83.0369 319.136C83.0369 320.348 83.2263 321.42 83.6051 322.352C83.9915 323.277 84.5597 324.004 85.3097 324.534C86.0672 325.057 87.0066 325.318 88.1278 325.318ZM100.673 328V310.545H103.264V313.182H103.446C103.764 312.318 104.34 311.617 105.173 311.08C106.007 310.542 106.946 310.273 107.991 310.273C108.188 310.273 108.435 310.277 108.73 310.284C109.026 310.292 109.249 310.303 109.401 310.318V313.045C109.31 313.023 109.101 312.989 108.776 312.943C108.457 312.89 108.12 312.864 107.764 312.864C106.916 312.864 106.158 313.042 105.491 313.398C104.832 313.746 104.31 314.231 103.923 314.852C103.545 315.466 103.355 316.167 103.355 316.955V328H100.673ZM119.139 328.364C117.563 328.364 116.181 327.989 114.991 327.239C113.81 326.489 112.885 325.439 112.219 324.091C111.56 322.742 111.23 321.167 111.23 319.364C111.23 317.545 111.56 315.958 112.219 314.602C112.885 313.246 113.81 312.193 114.991 311.443C116.181 310.693 117.563 310.318 119.139 310.318C120.715 310.318 122.094 310.693 123.276 311.443C124.465 312.193 125.389 313.246 126.048 314.602C126.715 315.958 127.048 317.545 127.048 319.364C127.048 321.167 126.715 322.742 126.048 324.091C125.389 325.439 124.465 326.489 123.276 327.239C122.094 327.989 120.715 328.364 119.139 328.364ZM119.139 325.955C120.336 325.955 121.321 325.648 122.094 325.034C122.866 324.42 123.438 323.614 123.81 322.614C124.181 321.614 124.366 320.53 124.366 319.364C124.366 318.197 124.181 317.11 123.81 316.102C123.438 315.095 122.866 314.28 122.094 313.659C121.321 313.038 120.336 312.727 119.139 312.727C117.942 312.727 116.957 313.038 116.185 313.659C115.412 314.28 114.84 315.095 114.469 316.102C114.098 317.11 113.912 318.197 113.912 319.364C113.912 320.53 114.098 321.614 114.469 322.614C114.84 323.614 115.412 324.42 116.185 325.034C116.957 325.648 117.942 325.955 119.139 325.955ZM134.503 328L129.185 310.545H132.003L135.776 323.909H135.957L139.685 310.545H142.548L146.23 323.864H146.412L150.185 310.545H153.003L147.685 328H145.048L141.23 314.591H140.957L137.139 328H134.503ZM164.139 310.545V312.818H155.094V310.545H164.139ZM157.73 306.364H160.412V323C160.412 323.758 160.522 324.326 160.741 324.705C160.969 325.076 161.257 325.326 161.605 325.455C161.961 325.576 162.336 325.636 162.73 325.636C163.026 325.636 163.268 325.621 163.457 325.591C163.647 325.553 163.798 325.523 163.912 325.5L164.457 327.909C164.276 327.977 164.022 328.045 163.696 328.114C163.37 328.189 162.957 328.227 162.457 328.227C161.7 328.227 160.957 328.064 160.23 327.739C159.51 327.413 158.912 326.917 158.435 326.25C157.965 325.583 157.73 324.742 157.73 323.727V306.364ZM171.23 317.5V328H168.548V304.727H171.23V313.273H171.457C171.866 312.371 172.48 311.655 173.298 311.125C174.124 310.587 175.223 310.318 176.594 310.318C177.783 310.318 178.825 310.557 179.719 311.034C180.613 311.504 181.306 312.227 181.798 313.205C182.298 314.174 182.548 315.409 182.548 316.909V328H179.866V317.091C179.866 315.705 179.507 314.633 178.787 313.875C178.075 313.11 177.086 312.727 175.821 312.727C174.942 312.727 174.154 312.913 173.457 313.284C172.768 313.655 172.223 314.197 171.821 314.909C171.427 315.621 171.23 316.485 171.23 317.5ZM203.545 328.364C201.909 328.364 200.5 327.977 199.318 327.205C198.136 326.432 197.227 325.367 196.591 324.011C195.955 322.655 195.636 321.106 195.636 319.364C195.636 317.591 195.962 316.027 196.614 314.67C197.273 313.307 198.189 312.242 199.364 311.477C200.545 310.705 201.924 310.318 203.5 310.318C204.727 310.318 205.833 310.545 206.818 311C207.803 311.455 208.61 312.091 209.239 312.909C209.867 313.727 210.258 314.682 210.409 315.773H207.727C207.523 314.977 207.068 314.273 206.364 313.659C205.667 313.038 204.727 312.727 203.545 312.727C202.5 312.727 201.583 313 200.795 313.545C200.015 314.083 199.405 314.845 198.966 315.83C198.534 316.807 198.318 317.955 198.318 319.273C198.318 320.621 198.53 321.795 198.955 322.795C199.386 323.795 199.992 324.572 200.773 325.125C201.561 325.678 202.485 325.955 203.545 325.955C204.242 325.955 204.875 325.833 205.443 325.591C206.011 325.348 206.492 325 206.886 324.545C207.28 324.091 207.561 323.545 207.727 322.909H210.409C210.258 323.939 209.883 324.867 209.284 325.693C208.693 326.511 207.909 327.163 206.932 327.648C205.962 328.125 204.833 328.364 203.545 328.364ZM221.42 328.364C219.845 328.364 218.462 327.989 217.273 327.239C216.091 326.489 215.167 325.439 214.5 324.091C213.841 322.742 213.511 321.167 213.511 319.364C213.511 317.545 213.841 315.958 214.5 314.602C215.167 313.246 216.091 312.193 217.273 311.443C218.462 310.693 219.845 310.318 221.42 310.318C222.996 310.318 224.375 310.693 225.557 311.443C226.746 312.193 227.67 313.246 228.33 314.602C228.996 315.958 229.33 317.545 229.33 319.364C229.33 321.167 228.996 322.742 228.33 324.091C227.67 325.439 226.746 326.489 225.557 327.239C224.375 327.989 222.996 328.364 221.42 328.364ZM221.42 325.955C222.617 325.955 223.602 325.648 224.375 325.034C225.148 324.42 225.72 323.614 226.091 322.614C226.462 321.614 226.648 320.53 226.648 319.364C226.648 318.197 226.462 317.11 226.091 316.102C225.72 315.095 225.148 314.28 224.375 313.659C223.602 313.038 222.617 312.727 221.42 312.727C220.223 312.727 219.239 313.038 218.466 313.659C217.693 314.28 217.121 315.095 216.75 316.102C216.379 317.11 216.193 318.197 216.193 319.364C216.193 320.53 216.379 321.614 216.75 322.614C217.121 323.614 217.693 324.42 218.466 325.034C219.239 325.648 220.223 325.955 221.42 325.955ZM233.423 328V310.545H236.014V313.273H236.241C236.605 312.341 237.192 311.617 238.003 311.102C238.813 310.58 239.787 310.318 240.923 310.318C242.075 310.318 243.033 310.58 243.798 311.102C244.571 311.617 245.173 312.341 245.605 313.273H245.787C246.234 312.371 246.904 311.655 247.798 311.125C248.692 310.587 249.764 310.318 251.014 310.318C252.575 310.318 253.851 310.807 254.844 311.784C255.836 312.754 256.332 314.265 256.332 316.318V328H253.651V316.318C253.651 315.03 253.298 314.11 252.594 313.557C251.889 313.004 251.06 312.727 250.105 312.727C248.878 312.727 247.927 313.098 247.253 313.841C246.579 314.576 246.241 315.508 246.241 316.636V328H243.514V316.045C243.514 315.053 243.192 314.254 242.548 313.648C241.904 313.034 241.075 312.727 240.06 312.727C239.363 312.727 238.711 312.913 238.105 313.284C237.507 313.655 237.022 314.17 236.651 314.83C236.287 315.481 236.105 316.235 236.105 317.091V328H233.423ZM261.236 334.545V310.545H263.827V313.318H264.145C264.342 313.015 264.615 312.629 264.963 312.159C265.319 311.682 265.827 311.258 266.486 310.886C267.152 310.508 268.054 310.318 269.19 310.318C270.66 310.318 271.955 310.686 273.077 311.42C274.198 312.155 275.073 313.197 275.702 314.545C276.33 315.894 276.645 317.485 276.645 319.318C276.645 321.167 276.33 322.769 275.702 324.125C275.073 325.473 274.202 326.519 273.088 327.261C271.974 327.996 270.69 328.364 269.236 328.364C268.115 328.364 267.217 328.178 266.543 327.807C265.868 327.428 265.349 327 264.986 326.523C264.622 326.038 264.342 325.636 264.145 325.318H263.918V334.545H261.236ZM263.872 319.273C263.872 320.591 264.065 321.754 264.452 322.761C264.838 323.761 265.402 324.545 266.145 325.114C266.887 325.674 267.796 325.955 268.872 325.955C269.993 325.955 270.929 325.659 271.679 325.068C272.437 324.47 273.005 323.667 273.384 322.659C273.77 321.644 273.963 320.515 273.963 319.273C273.963 318.045 273.774 316.939 273.395 315.955C273.024 314.962 272.459 314.178 271.702 313.602C270.952 313.019 270.009 312.727 268.872 312.727C267.781 312.727 266.865 313.004 266.122 313.557C265.38 314.102 264.819 314.867 264.44 315.852C264.062 316.83 263.872 317.97 263.872 319.273ZM285.872 328.409C284.766 328.409 283.762 328.201 282.861 327.784C281.959 327.36 281.243 326.75 280.713 325.955C280.183 325.152 279.918 324.182 279.918 323.045C279.918 322.045 280.115 321.235 280.509 320.614C280.902 319.985 281.429 319.492 282.088 319.136C282.747 318.78 283.474 318.515 284.27 318.341C285.073 318.159 285.88 318.015 286.69 317.909C287.751 317.773 288.611 317.67 289.27 317.602C289.937 317.527 290.421 317.402 290.724 317.227C291.035 317.053 291.19 316.75 291.19 316.318V316.227C291.19 315.106 290.884 314.235 290.27 313.614C289.664 312.992 288.743 312.682 287.509 312.682C286.228 312.682 285.224 312.962 284.497 313.523C283.77 314.083 283.259 314.682 282.963 315.318L280.418 314.409C280.872 313.348 281.478 312.523 282.236 311.932C283.001 311.333 283.834 310.917 284.736 310.682C285.645 310.439 286.539 310.318 287.418 310.318C287.978 310.318 288.622 310.386 289.349 310.523C290.084 310.652 290.793 310.92 291.474 311.33C292.164 311.739 292.736 312.356 293.19 313.182C293.645 314.008 293.872 315.114 293.872 316.5V328H291.19V325.636H291.054C290.872 326.015 290.569 326.42 290.145 326.852C289.721 327.284 289.156 327.652 288.452 327.955C287.747 328.258 286.887 328.409 285.872 328.409ZM286.281 326C287.342 326 288.236 325.792 288.963 325.375C289.698 324.958 290.251 324.42 290.622 323.761C291.001 323.102 291.19 322.409 291.19 321.682V319.227C291.077 319.364 290.827 319.489 290.44 319.602C290.062 319.708 289.622 319.803 289.122 319.886C288.63 319.962 288.149 320.03 287.679 320.091C287.217 320.144 286.842 320.189 286.554 320.227C285.857 320.318 285.205 320.466 284.599 320.67C284.001 320.867 283.516 321.167 283.145 321.568C282.781 321.962 282.599 322.5 282.599 323.182C282.599 324.114 282.944 324.818 283.634 325.295C284.33 325.765 285.213 326 286.281 326ZM301.449 317.5V328H298.767V310.545H301.358V313.273H301.585C301.994 312.386 302.616 311.674 303.449 311.136C304.282 310.591 305.358 310.318 306.676 310.318C307.858 310.318 308.892 310.561 309.778 311.045C310.665 311.523 311.354 312.25 311.847 313.227C312.339 314.197 312.585 315.424 312.585 316.909V328H309.903V317.091C309.903 315.72 309.547 314.652 308.835 313.886C308.123 313.114 307.146 312.727 305.903 312.727C305.047 312.727 304.282 312.913 303.608 313.284C302.941 313.655 302.415 314.197 302.028 314.909C301.642 315.621 301.449 316.485 301.449 317.5ZM317.486 328V310.545H320.168V328H317.486ZM318.849 307.636C318.327 307.636 317.876 307.458 317.497 307.102C317.126 306.746 316.94 306.318 316.94 305.818C316.94 305.318 317.126 304.89 317.497 304.534C317.876 304.178 318.327 304 318.849 304C319.372 304 319.819 304.178 320.19 304.534C320.569 304.89 320.759 305.318 320.759 305.818C320.759 306.318 320.569 306.746 320.19 307.102C319.819 307.458 319.372 307.636 318.849 307.636ZM332.398 328.364C330.716 328.364 329.265 327.992 328.045 327.25C326.833 326.5 325.898 325.455 325.239 324.114C324.587 322.765 324.261 321.197 324.261 319.409C324.261 317.621 324.587 316.045 325.239 314.682C325.898 313.311 326.814 312.242 327.989 311.477C329.17 310.705 330.549 310.318 332.125 310.318C333.034 310.318 333.932 310.47 334.818 310.773C335.705 311.076 336.511 311.568 337.239 312.25C337.966 312.924 338.545 313.818 338.977 314.932C339.409 316.045 339.625 317.417 339.625 319.045V320.182H326.17V317.864H336.898C336.898 316.879 336.701 316 336.307 315.227C335.92 314.455 335.367 313.845 334.648 313.398C333.936 312.951 333.095 312.727 332.125 312.727C331.057 312.727 330.133 312.992 329.352 313.523C328.58 314.045 327.985 314.727 327.568 315.568C327.152 316.409 326.943 317.311 326.943 318.273V319.818C326.943 321.136 327.17 322.254 327.625 323.17C328.087 324.08 328.727 324.773 329.545 325.25C330.364 325.72 331.314 325.955 332.398 325.955C333.102 325.955 333.739 325.856 334.307 325.659C334.883 325.455 335.379 325.152 335.795 324.75C336.212 324.341 336.534 323.833 336.761 323.227L339.352 323.955C339.08 324.833 338.621 325.606 337.977 326.273C337.333 326.932 336.538 327.447 335.591 327.818C334.644 328.182 333.58 328.364 332.398 328.364ZM356.068 314.455L353.659 315.136C353.508 314.735 353.284 314.345 352.989 313.966C352.701 313.58 352.307 313.261 351.807 313.011C351.307 312.761 350.667 312.636 349.886 312.636C348.818 312.636 347.928 312.883 347.216 313.375C346.511 313.86 346.159 314.477 346.159 315.227C346.159 315.894 346.402 316.42 346.886 316.807C347.371 317.193 348.129 317.515 349.159 317.773L351.75 318.409C353.311 318.788 354.473 319.367 355.239 320.148C356.004 320.92 356.386 321.917 356.386 323.136C356.386 324.136 356.098 325.03 355.523 325.818C354.955 326.606 354.159 327.227 353.136 327.682C352.114 328.136 350.924 328.364 349.568 328.364C347.788 328.364 346.314 327.977 345.148 327.205C343.981 326.432 343.242 325.303 342.932 323.818L345.477 323.182C345.72 324.121 346.178 324.826 346.852 325.295C347.534 325.765 348.424 326 349.523 326C350.773 326 351.765 325.735 352.5 325.205C353.242 324.667 353.614 324.023 353.614 323.273C353.614 322.667 353.402 322.159 352.977 321.75C352.553 321.333 351.902 321.023 351.023 320.818L348.114 320.136C346.515 319.758 345.341 319.17 344.591 318.375C343.848 317.572 343.477 316.568 343.477 315.364C343.477 314.379 343.754 313.508 344.307 312.75C344.867 311.992 345.629 311.398 346.591 310.966C347.561 310.534 348.659 310.318 349.886 310.318C351.614 310.318 352.97 310.697 353.955 311.455C354.947 312.212 355.652 313.212 356.068 314.455ZM89.6463 364.455L87.2372 365.136C87.0857 364.735 86.8622 364.345 86.5668 363.966C86.2789 363.58 85.8849 363.261 85.3849 363.011C84.8849 362.761 84.2448 362.636 83.4645 362.636C82.3963 362.636 81.5062 362.883 80.794 363.375C80.0895 363.86 79.7372 364.477 79.7372 365.227C79.7372 365.894 79.9796 366.42 80.4645 366.807C80.9493 367.193 81.7069 367.515 82.7372 367.773L85.3281 368.409C86.8887 368.788 88.0516 369.367 88.8168 370.148C89.5819 370.92 89.9645 371.917 89.9645 373.136C89.9645 374.136 89.6766 375.03 89.1009 375.818C88.5327 376.606 87.7372 377.227 86.7145 377.682C85.6918 378.136 84.5024 378.364 83.1463 378.364C81.366 378.364 79.8925 377.977 78.7259 377.205C77.5592 376.432 76.8205 375.303 76.5099 373.818L79.0554 373.182C79.2978 374.121 79.7562 374.826 80.4304 375.295C81.1122 375.765 82.0024 376 83.1009 376C84.3509 376 85.3433 375.735 86.0781 375.205C86.8205 374.667 87.1918 374.023 87.1918 373.273C87.1918 372.667 86.9796 372.159 86.5554 371.75C86.1312 371.333 85.4796 371.023 84.6009 370.818L81.6918 370.136C80.0933 369.758 78.919 369.17 78.169 368.375C77.4266 367.572 77.0554 366.568 77.0554 365.364C77.0554 364.379 77.3319 363.508 77.8849 362.75C78.4455 361.992 79.2069 361.398 80.169 360.966C81.1387 360.534 82.2372 360.318 83.4645 360.318C85.1918 360.318 86.5478 360.697 87.5327 361.455C88.5251 362.212 89.2296 363.212 89.6463 364.455ZM101.092 378.364C99.456 378.364 98.0469 377.977 96.8651 377.205C95.6832 376.432 94.7741 375.367 94.1378 374.011C93.5014 372.655 93.1832 371.106 93.1832 369.364C93.1832 367.591 93.509 366.027 94.1605 364.67C94.8196 363.307 95.7363 362.242 96.9105 361.477C98.0923 360.705 99.4711 360.318 101.047 360.318C102.274 360.318 103.38 360.545 104.365 361C105.35 361.455 106.157 362.091 106.786 362.909C107.414 363.727 107.804 364.682 107.956 365.773H105.274C105.07 364.977 104.615 364.273 103.911 363.659C103.214 363.038 102.274 362.727 101.092 362.727C100.047 362.727 99.1302 363 98.3423 363.545C97.562 364.083 96.9522 364.845 96.5128 365.83C96.081 366.807 95.8651 367.955 95.8651 369.273C95.8651 370.621 96.0772 371.795 96.5014 372.795C96.9332 373.795 97.5393 374.572 98.3196 375.125C99.1075 375.678 100.032 375.955 101.092 375.955C101.789 375.955 102.422 375.833 102.99 375.591C103.558 375.348 104.039 375 104.433 374.545C104.827 374.091 105.107 373.545 105.274 372.909H107.956C107.804 373.939 107.429 374.867 106.831 375.693C106.24 376.511 105.456 377.163 104.479 377.648C103.509 378.125 102.38 378.364 101.092 378.364ZM117.013 378.409C115.907 378.409 114.903 378.201 114.001 377.784C113.1 377.36 112.384 376.75 111.854 375.955C111.323 375.152 111.058 374.182 111.058 373.045C111.058 372.045 111.255 371.235 111.649 370.614C112.043 369.985 112.57 369.492 113.229 369.136C113.888 368.78 114.615 368.515 115.411 368.341C116.214 368.159 117.02 368.015 117.831 367.909C118.892 367.773 119.751 367.67 120.411 367.602C121.077 367.527 121.562 367.402 121.865 367.227C122.176 367.053 122.331 366.75 122.331 366.318V366.227C122.331 365.106 122.024 364.235 121.411 363.614C120.804 362.992 119.884 362.682 118.649 362.682C117.369 362.682 116.365 362.962 115.638 363.523C114.911 364.083 114.399 364.682 114.104 365.318L111.558 364.409C112.013 363.348 112.619 362.523 113.376 361.932C114.142 361.333 114.975 360.917 115.876 360.682C116.786 360.439 117.679 360.318 118.558 360.318C119.119 360.318 119.763 360.386 120.49 360.523C121.225 360.652 121.933 360.92 122.615 361.33C123.304 361.739 123.876 362.356 124.331 363.182C124.786 364.008 125.013 365.114 125.013 366.5V378H122.331V375.636H122.195C122.013 376.015 121.71 376.42 121.286 376.852C120.861 377.284 120.297 377.652 119.592 377.955C118.888 378.258 118.028 378.409 117.013 378.409ZM117.422 376C118.482 376 119.376 375.792 120.104 375.375C120.839 374.958 121.392 374.42 121.763 373.761C122.142 373.102 122.331 372.409 122.331 371.682V369.227C122.217 369.364 121.967 369.489 121.581 369.602C121.202 369.708 120.763 369.803 120.263 369.886C119.77 369.962 119.289 370.03 118.82 370.091C118.357 370.144 117.982 370.189 117.695 370.227C116.998 370.318 116.346 370.466 115.74 370.67C115.142 370.867 114.657 371.167 114.286 371.568C113.922 371.962 113.74 372.5 113.74 373.182C113.74 374.114 114.085 374.818 114.774 375.295C115.471 375.765 116.354 376 117.422 376ZM132.589 354.727V378H129.908V354.727H132.589ZM137.501 378V360.545H140.183V378H137.501ZM138.865 357.636C138.342 357.636 137.892 357.458 137.513 357.102C137.142 356.746 136.956 356.318 136.956 355.818C136.956 355.318 137.142 354.89 137.513 354.534C137.892 354.178 138.342 354 138.865 354C139.388 354 139.835 354.178 140.206 354.534C140.585 354.89 140.774 355.318 140.774 355.818C140.774 356.318 140.585 356.746 140.206 357.102C139.835 357.458 139.388 357.636 138.865 357.636ZM147.777 367.5V378H145.095V360.545H147.686V363.273H147.913C148.322 362.386 148.944 361.674 149.777 361.136C150.61 360.591 151.686 360.318 153.004 360.318C154.186 360.318 155.22 360.561 156.107 361.045C156.993 361.523 157.682 362.25 158.175 363.227C158.667 364.197 158.913 365.424 158.913 366.909V378H156.232V367.091C156.232 365.72 155.875 364.652 155.163 363.886C154.451 363.114 153.474 362.727 152.232 362.727C151.375 362.727 150.61 362.913 149.936 363.284C149.269 363.655 148.743 364.197 148.357 364.909C147.97 365.621 147.777 366.485 147.777 367.5ZM170.859 384.909C169.564 384.909 168.45 384.742 167.518 384.409C166.587 384.083 165.81 383.652 165.189 383.114C164.575 382.583 164.087 382.015 163.723 381.409L165.859 379.909C166.102 380.227 166.409 380.591 166.78 381C167.151 381.417 167.659 381.777 168.303 382.08C168.954 382.39 169.806 382.545 170.859 382.545C172.268 382.545 173.431 382.205 174.348 381.523C175.265 380.841 175.723 379.773 175.723 378.318V374.773H175.496C175.299 375.091 175.018 375.485 174.655 375.955C174.299 376.417 173.784 376.83 173.109 377.193C172.443 377.549 171.541 377.727 170.405 377.727C168.996 377.727 167.731 377.394 166.609 376.727C165.496 376.061 164.613 375.091 163.962 373.818C163.318 372.545 162.996 371 162.996 369.182C162.996 367.394 163.31 365.837 163.939 364.511C164.568 363.178 165.443 362.148 166.564 361.42C167.685 360.686 168.981 360.318 170.45 360.318C171.587 360.318 172.488 360.508 173.155 360.886C173.829 361.258 174.344 361.682 174.7 362.159C175.064 362.629 175.344 363.015 175.541 363.318H175.814V360.545H178.405V378.5C178.405 380 178.064 381.22 177.382 382.159C176.708 383.106 175.799 383.799 174.655 384.239C173.518 384.686 172.253 384.909 170.859 384.909ZM170.768 375.318C171.844 375.318 172.753 375.072 173.496 374.58C174.238 374.087 174.803 373.379 175.189 372.455C175.575 371.53 175.768 370.424 175.768 369.136C175.768 367.879 175.579 366.769 175.2 365.807C174.821 364.845 174.261 364.091 173.518 363.545C172.776 363 171.859 362.727 170.768 362.727C169.632 362.727 168.685 363.015 167.928 363.591C167.178 364.167 166.613 364.939 166.234 365.909C165.863 366.879 165.678 367.955 165.678 369.136C165.678 370.348 165.867 371.42 166.246 372.352C166.632 373.277 167.2 374.004 167.95 374.534C168.708 375.057 169.647 375.318 170.768 375.318ZM192.314 378V360.545H194.905V363.182H195.087C195.405 362.318 195.981 361.617 196.814 361.08C197.647 360.542 198.587 360.273 199.632 360.273C199.829 360.273 200.075 360.277 200.371 360.284C200.666 360.292 200.89 360.303 201.041 360.318V363.045C200.95 363.023 200.742 362.989 200.416 362.943C200.098 362.89 199.761 362.864 199.405 362.864C198.556 362.864 197.799 363.042 197.132 363.398C196.473 363.746 195.95 364.231 195.564 364.852C195.185 365.466 194.996 366.167 194.996 366.955V378H192.314ZM209.357 378.409C208.25 378.409 207.247 378.201 206.345 377.784C205.444 377.36 204.728 376.75 204.197 375.955C203.667 375.152 203.402 374.182 203.402 373.045C203.402 372.045 203.599 371.235 203.993 370.614C204.387 369.985 204.913 369.492 205.572 369.136C206.232 368.78 206.959 368.515 207.754 368.341C208.557 368.159 209.364 368.015 210.175 367.909C211.235 367.773 212.095 367.67 212.754 367.602C213.421 367.527 213.906 367.402 214.209 367.227C214.519 367.053 214.675 366.75 214.675 366.318V366.227C214.675 365.106 214.368 364.235 213.754 363.614C213.148 362.992 212.228 362.682 210.993 362.682C209.713 362.682 208.709 362.962 207.982 363.523C207.254 364.083 206.743 364.682 206.447 365.318L203.902 364.409C204.357 363.348 204.963 362.523 205.72 361.932C206.485 361.333 207.319 360.917 208.22 360.682C209.129 360.439 210.023 360.318 210.902 360.318C211.463 360.318 212.107 360.386 212.834 360.523C213.569 360.652 214.277 360.92 214.959 361.33C215.648 361.739 216.22 362.356 216.675 363.182C217.129 364.008 217.357 365.114 217.357 366.5V378H214.675V375.636H214.538C214.357 376.015 214.054 376.42 213.629 376.852C213.205 377.284 212.641 377.652 211.936 377.955C211.232 378.258 210.372 378.409 209.357 378.409ZM209.766 376C210.826 376 211.72 375.792 212.447 375.375C213.182 374.958 213.735 374.42 214.107 373.761C214.485 373.102 214.675 372.409 214.675 371.682V369.227C214.561 369.364 214.311 369.489 213.925 369.602C213.546 369.708 213.107 369.803 212.607 369.886C212.114 369.962 211.633 370.03 211.163 370.091C210.701 370.144 210.326 370.189 210.038 370.227C209.341 370.318 208.69 370.466 208.084 370.67C207.485 370.867 207 371.167 206.629 371.568C206.266 371.962 206.084 372.5 206.084 373.182C206.084 374.114 206.429 374.818 207.118 375.295C207.815 375.765 208.697 376 209.766 376ZM222.251 384.545V360.545H224.842V363.318H225.161C225.357 363.015 225.63 362.629 225.979 362.159C226.335 361.682 226.842 361.258 227.501 360.886C228.168 360.508 229.07 360.318 230.206 360.318C231.676 360.318 232.971 360.686 234.092 361.42C235.214 362.155 236.089 363.197 236.717 364.545C237.346 365.894 237.661 367.485 237.661 369.318C237.661 371.167 237.346 372.769 236.717 374.125C236.089 375.473 235.217 376.519 234.104 377.261C232.99 377.996 231.706 378.364 230.251 378.364C229.13 378.364 228.232 378.178 227.558 377.807C226.884 377.428 226.365 377 226.001 376.523C225.638 376.038 225.357 375.636 225.161 375.318H224.933V384.545H222.251ZM224.888 369.273C224.888 370.591 225.081 371.754 225.467 372.761C225.854 373.761 226.418 374.545 227.161 375.114C227.903 375.674 228.812 375.955 229.888 375.955C231.009 375.955 231.945 375.659 232.695 375.068C233.452 374.47 234.02 373.667 234.399 372.659C234.786 371.644 234.979 370.515 234.979 369.273C234.979 368.045 234.789 366.939 234.411 365.955C234.039 364.962 233.475 364.178 232.717 363.602C231.967 363.019 231.024 362.727 229.888 362.727C228.797 362.727 227.88 363.004 227.138 363.557C226.395 364.102 225.835 364.867 225.456 365.852C225.077 366.83 224.888 367.97 224.888 369.273ZM241.751 378V360.545H244.433V378H241.751ZM243.115 357.636C242.592 357.636 242.142 357.458 241.763 357.102C241.392 356.746 241.206 356.318 241.206 355.818C241.206 355.318 241.392 354.89 241.763 354.534C242.142 354.178 242.592 354 243.115 354C243.638 354 244.085 354.178 244.456 354.534C244.835 354.89 245.024 355.318 245.024 355.818C245.024 356.318 244.835 356.746 244.456 357.102C244.085 357.458 243.638 357.636 243.115 357.636ZM255.936 378.364C254.482 378.364 253.197 377.996 252.084 377.261C250.97 376.519 250.099 375.473 249.47 374.125C248.841 372.769 248.527 371.167 248.527 369.318C248.527 367.485 248.841 365.894 249.47 364.545C250.099 363.197 250.974 362.155 252.095 361.42C253.216 360.686 254.512 360.318 255.982 360.318C257.118 360.318 258.016 360.508 258.675 360.886C259.341 361.258 259.849 361.682 260.197 362.159C260.554 362.629 260.83 363.015 261.027 363.318H261.254V354.727H263.936V378H261.345V375.318H261.027C260.83 375.636 260.55 376.038 260.186 376.523C259.822 377 259.304 377.428 258.629 377.807C257.955 378.178 257.057 378.364 255.936 378.364ZM256.3 375.955C257.375 375.955 258.285 375.674 259.027 375.114C259.769 374.545 260.334 373.761 260.72 372.761C261.107 371.754 261.3 370.591 261.3 369.273C261.3 367.97 261.11 366.83 260.732 365.852C260.353 364.867 259.792 364.102 259.05 363.557C258.307 363.004 257.391 362.727 256.3 362.727C255.163 362.727 254.216 363.019 253.459 363.602C252.709 364.178 252.144 364.962 251.766 365.955C251.394 366.939 251.209 368.045 251.209 369.273C251.209 370.515 251.398 371.644 251.777 372.659C252.163 373.667 252.732 374.47 253.482 375.068C254.239 375.659 255.179 375.955 256.3 375.955ZM271.902 354.727V378H269.22V354.727H271.902ZM278.541 384.545C278.087 384.545 277.681 384.508 277.325 384.432C276.969 384.364 276.723 384.295 276.587 384.227L277.268 381.864C277.92 382.03 278.496 382.091 278.996 382.045C279.496 382 279.939 381.777 280.325 381.375C280.719 380.981 281.079 380.341 281.405 379.455L281.905 378.091L275.45 360.545H278.359L283.178 374.455H283.359L288.178 360.545H291.087L283.678 380.545C283.344 381.447 282.931 382.193 282.439 382.784C281.946 383.383 281.375 383.826 280.723 384.114C280.079 384.402 279.352 384.545 278.541 384.545Z" fill="#5A5A5A"/>
</svg>
