<svg width="253" height="253" viewBox="0 0 253 253" fill="none" xmlns="http://www.w3.org/2000/svg">
<circle cx="126.5" cy="126.5" r="87.5" fill="#F4F4F4"/>
<circle cx="126.5" cy="126.5" r="126" stroke="#E3E0E0" stroke-dasharray="4 4"/>
<path d="M142.335 117.13C142.335 119.12 142.395 121.12 142.315 123.11C142.265 124.41 142.295 126 140.415 126.03C138.485 126.06 138.565 124.46 138.545 123.16C138.495 119.67 138.575 116.18 138.515 112.69C138.405 105.65 134.775 102.11 127.635 102.03C125.305 102 122.975 101.98 120.655 102.04C114.385 102.19 111.215 105.08 110.475 111.3C109.695 117.82 108.565 118.79 102.025 119.07C100.465 119.14 97.7349 117.95 97.7349 120.78C97.7349 123.36 100.355 122.69 102.065 122.77C104.225 122.87 106.385 122.81 108.545 122.79C115.895 122.75 117.025 121.76 117.825 114.4C117.975 113.01 117.965 111.52 119.785 111.59C121.475 111.65 121.635 113.06 121.775 114.49C122.395 120.9 118.925 125.7 112.525 126.32C108.085 126.76 103.555 126.67 99.1049 126.37C95.5149 126.13 93.1949 124.05 93.6149 120.11C94.0049 116.46 96.4949 114.87 99.8749 115.18C104.445 115.6 107.385 114.65 106.795 109.22C106.715 108.46 107.135 107.61 107.425 106.84C110.265 99.25 118.415 96.24 130.605 98.25C137.595 99.4 141.865 104.26 142.305 111.64C142.425 113.47 142.335 115.31 142.335 117.13Z" fill="#217BF4"/>
<path d="M148.085 184.84C145.615 184.69 142.775 185.14 139.995 184.31C134.735 182.74 131.385 176.82 132.895 171.69C133.205 170.62 133.675 169.83 134.895 169.92C136.065 170.01 136.665 170.77 136.715 171.9C136.835 175.01 136.035 178.67 139.865 180.08C144.815 181.91 150.065 180.73 155.185 180.8C156.325 180.82 156.985 179.93 156.865 178.78C156.775 177.88 156.115 177.31 155.185 177.26C153.855 177.19 152.525 177.14 151.195 177.17C146.785 177.26 144.465 175.31 144.055 170.75C143.345 162.95 140.275 160.27 132.535 160.18C130.535 160.16 128.535 160.11 126.545 160.19C119.735 160.46 116.155 164.05 115.965 170.82C115.875 174.31 115.945 177.81 115.935 181.31C115.925 182.64 116.035 184.36 114.305 184.43C112.305 184.51 112.135 182.71 112.135 181.16C112.145 177 111.915 172.81 112.315 168.69C112.975 161.85 117.335 157.45 124.175 156.59C128.125 156.09 132.145 156.09 136.115 156.68C143.085 157.72 147.215 161.77 147.725 168.85C147.965 172.3 149.165 173.57 152.565 173.39C156.545 173.18 160.585 173.38 160.875 178.83C161.095 182.98 158.445 184.8 152.445 184.85C151.085 184.85 149.755 184.84 148.085 184.84Z" fill="#217BF4"/>
<path d="M168.885 154.54C171.875 154.54 174.895 154.24 177.835 154.61C182.805 155.23 184.685 158.51 182.825 163.11C181.215 167.11 179.425 171.04 177.525 174.9C175.715 178.57 170.105 180.45 166.375 178.87C165.535 178.51 164.925 177.95 165.025 177.04C165.175 175.64 166.235 175.27 167.485 175.08C169.525 174.77 172.305 176.16 173.505 174C175.835 169.81 177.695 165.35 179.475 160.89C180.175 159.14 178.635 158.66 177.165 158.65C171.675 158.63 166.195 158.69 160.705 158.62C158.325 158.59 157.715 160.35 156.885 161.95C156.125 163.42 155.435 164.94 154.615 166.38C154.105 167.26 153.325 168.03 152.195 167.47C150.935 166.85 150.965 165.89 151.365 164.55C153.795 156.44 156.505 154.33 164.895 154.31C166.225 154.31 167.555 154.31 168.885 154.31C168.875 154.39 168.885 154.47 168.885 154.54Z" fill="#217BF4"/>
<path d="M85.485 96.13C87.145 96.13 88.8149 96.13 90.4749 96.13C97.6449 96.14 101.955 99.71 103.315 106.66C103.495 107.56 103.545 108.33 102.775 108.87C101.795 109.57 100.885 109.2 100.095 108.46C99.865 108.24 99.6349 107.93 99.5649 107.62C97.4349 98.07 89.8949 100.07 83.3449 100.05C73.5849 100.01 73.585 100.04 77.635 108.88C78.045 109.79 78.5049 110.68 78.8449 111.61C80.1049 115.13 81.7449 117.98 86.3149 117.01C87.6349 116.73 89.305 117.04 89.435 118.68C89.595 120.72 87.8449 120.75 86.2849 120.9C81.4749 121.35 77.8649 120.09 76.1249 115.01C74.9449 111.57 73.0449 108.38 71.6949 105C69.7849 100.21 71.8949 96.7 77.0049 96.23C79.8049 95.97 82.655 96.18 85.485 96.18C85.485 96.16 85.485 96.14 85.485 96.13Z" fill="#217BF4"/>
<path d="M123.505 94.45C117.215 94.48 112.075 89.26 112.195 82.97C112.305 76.94 117.395 71.99 123.475 72C129.675 72.01 134.615 76.79 134.745 82.92C134.875 89.21 129.795 94.42 123.505 94.45Z" fill="#217BF4"/>
<path d="M131.105 130.12C137.335 130.2 142.545 135.64 142.305 141.79C142.065 147.82 136.825 152.88 130.895 152.81C124.775 152.74 119.495 147.2 119.715 141.08C119.925 135.04 125.125 130.04 131.105 130.12Z" fill="#217BF4"/>
<path d="M87.7851 145.26C87.7851 156.31 87.7851 156.2 98.7951 156.4C101.345 156.45 105.965 154.81 106.005 158.23C106.045 161.87 101.475 159.66 98.9851 160.12C97.2151 160.45 95.3351 160.18 93.5051 160.18C85.0351 160.17 83.8551 158.97 83.8551 150.26C83.8551 145.93 83.8451 141.6 83.8751 137.27C83.8851 135.74 83.9651 133.96 86.0851 134.14C87.7951 134.29 87.7851 135.9 87.7851 137.26C87.7851 139.93 87.7851 142.59 87.7851 145.26Z" fill="#217BF4"/>
<path d="M177.895 129.88C177.895 132.37 177.995 134.86 177.855 137.34C177.775 138.79 178.655 141.18 175.985 141.03C173.685 140.9 174.075 138.68 174.045 137.11C173.975 132.63 173.795 128.14 174.085 123.69C174.335 119.87 172.855 118.7 169.215 118.99C165.755 119.26 162.255 119.06 158.775 119.03C157.425 119.02 155.855 118.93 155.745 117.22C155.605 115 157.455 115.15 158.925 115.14C163.235 115.1 167.545 115.07 171.855 115.14C175.935 115.2 177.845 117.46 177.885 121.44C177.915 124.24 177.895 127.06 177.895 129.88Z" fill="#217BF4"/>
<path d="M130.845 83C130.955 87.17 127.475 90.82 123.435 90.76C119.695 90.71 116.005 87.09 115.925 83.41C115.845 79.43 119.005 76.0801 123.025 75.9001C127.485 75.6901 130.725 78.64 130.845 83Z" fill="#ECF8F6"/>
<path d="M131.185 134C135.065 134.07 138.555 137.56 138.545 141.35C138.525 145.47 134.915 149.05 130.865 148.95C126.775 148.86 123.445 145.21 123.635 141.03C123.805 137.02 127.125 133.93 131.185 134Z" fill="#ECF8F6"/>
</svg>
