<svg width="16" height="16" viewBox="0 0 16 16" fill="none" xmlns="http://www.w3.org/2000/svg">
<path fill-rule="evenodd" clip-rule="evenodd" d="M8.00067 0C5.828 0 5.55533 0.0095 4.702 0.0483333C3.85033 0.0873333 3.269 0.222167 2.76033 0.42C2.23417 0.624333 1.78783 0.897667 1.34317 1.3425C0.898167 1.78717 0.624833 2.2335 0.419833 2.7595C0.2215 3.26833 0.0865 3.84983 0.0481667 4.70117C0.01 5.5545 0 5.82733 0 8C0 10.1727 0.00966667 10.4445 0.0483333 11.2978C0.0875 12.1495 0.222333 12.7308 0.42 13.2395C0.6245 13.7657 0.897833 14.212 1.34267 14.6567C1.78717 15.1017 2.2335 15.3757 2.75933 15.58C3.26833 15.7778 3.84983 15.9127 4.70133 15.9517C5.55467 15.9905 5.82717 16 7.99967 16C10.1725 16 10.4443 15.9905 11.2977 15.9517C12.1493 15.9127 12.7313 15.7778 13.2403 15.58C13.7663 15.3757 14.212 15.1017 14.6565 14.6567C15.1015 14.212 15.3748 13.7657 15.5798 13.2397C15.7765 12.7308 15.9115 12.1493 15.9515 11.298C15.9898 10.4447 15.9998 10.1727 15.9998 8C15.9998 5.82733 15.9898 5.55467 15.9515 4.70133C15.9115 3.84967 15.7765 3.26833 15.5798 2.75967C15.3748 2.2335 15.1015 1.78717 14.6565 1.3425C14.2115 0.8975 13.7665 0.624167 13.2398 0.42C12.7298 0.222167 12.1482 0.0873333 11.2965 0.0483333C10.4432 0.0095 10.1715 0 7.99817 0H8.00067ZM7.28318 1.44164C7.49618 1.4413 7.73385 1.44164 8.00085 1.44164C10.1368 1.44164 10.39 1.4493 11.2335 1.48764C12.0135 1.5233 12.4368 1.65364 12.7188 1.76314C13.0922 1.90814 13.3583 2.08147 13.6382 2.36147C13.9182 2.64147 14.0915 2.90814 14.2368 3.28147C14.3463 3.56314 14.4768 3.98647 14.5123 4.76647C14.5507 5.6098 14.559 5.86314 14.559 7.99814C14.559 10.1331 14.5507 10.3865 14.5123 11.2298C14.4767 12.0098 14.3463 12.4331 14.2368 12.7148C14.0918 13.0881 13.9182 13.354 13.6382 13.6338C13.3582 13.9138 13.0923 14.0871 12.7188 14.2321C12.4372 14.3421 12.0135 14.4721 11.2335 14.5078C10.3902 14.5461 10.1368 14.5545 8.00085 14.5545C5.86468 14.5545 5.61151 14.5461 4.76818 14.5078C3.98818 14.4718 3.56485 14.3415 3.28268 14.232C2.90935 14.087 2.64268 13.9136 2.36268 13.6336C2.08268 13.3536 1.90935 13.0876 1.76401 12.7141C1.65451 12.4325 1.52401 12.0091 1.48851 11.2291C1.45018 10.3858 1.44251 10.1325 1.44251 7.99614C1.44251 5.8598 1.45018 5.6078 1.48851 4.76447C1.52418 3.98447 1.65451 3.56114 1.76401 3.27914C1.90901 2.9058 2.08268 2.63914 2.36268 2.35914C2.64268 2.07914 2.90935 1.9058 3.28268 1.76047C3.56468 1.65047 3.98818 1.52047 4.76818 1.48464C5.50618 1.4513 5.79218 1.4413 7.28318 1.43964V1.44164ZM12.2712 2.76999C11.7412 2.76999 11.3112 3.19949 11.3112 3.72965C11.3112 4.25965 11.7412 4.68965 12.2712 4.68965C12.8012 4.68965 13.2312 4.25965 13.2312 3.72965C13.2312 3.19965 12.8012 2.76965 12.2712 2.76965V2.76999ZM8.00077 3.89166C5.73194 3.89166 3.89244 5.73116 3.89244 8C3.89244 10.2688 5.73194 12.1075 8.00077 12.1075C10.2696 12.1075 12.1084 10.2688 12.1084 8C12.1084 5.73116 10.2694 3.89166 8.0006 3.89166H8.00077ZM8.0007 5.33331C9.47337 5.33331 10.6674 6.52715 10.6674 7.99998C10.6674 9.47265 9.47337 10.6666 8.0007 10.6666C6.52787 10.6666 5.33404 9.47265 5.33404 7.99998C5.33404 6.52715 6.52787 5.33331 8.0007 5.33331Z" fill="white"/>
</svg>
