<svg width="18" height="18" viewBox="0 0 18 18" fill="none" xmlns="http://www.w3.org/2000/svg">
<path d="M9.03774 0.290344C4.09761 0.290344 0.0772258 4.16267 0.0754839 8.92164C0.0743226 10.4435 0.487742 11.9288 1.27161 13.237L0 17.7097L4.75142 16.5095C6.07309 17.2009 7.54268 17.5615 9.03426 17.5605H9.03774C13.9779 17.5605 17.9983 13.6876 18 8.9286C18.0012 6.62344 17.0698 4.45357 15.3772 2.82254C13.6852 1.19093 11.4352 0.290925 9.03774 0.290344ZM9.03774 16.1025H9.03484C7.69819 16.1025 6.3871 15.7564 5.24323 15.1026L4.97032 14.947L2.15187 15.6589L2.90439 13.0111L2.72729 12.74C1.98343 11.6055 1.58745 10.2783 1.58806 8.92164C1.58981 4.9657 4.932 1.74834 9.04064 1.74834C11.0299 1.74892 12.9002 2.49622 14.3071 3.85202C15.714 5.20783 16.488 7.01073 16.4868 8.92802C16.4851 12.884 13.1435 16.1025 9.03716 16.1025H9.03774ZM13.1237 10.7286C12.8996 10.6212 11.7987 10.0992 11.5932 10.0266C11.3882 9.95518 11.239 9.91802 11.0897 10.134C10.9411 10.35 10.5114 10.836 10.3814 10.9794C10.2501 11.1234 10.1195 11.1409 9.89535 11.0334C9.67123 10.9254 8.94948 10.6978 8.09477 9.96273C7.42877 9.39138 6.97935 8.68531 6.84871 8.46873C6.71806 8.25331 6.83477 8.1366 6.94684 8.02918C7.04729 7.93338 7.17097 7.77776 7.28245 7.65176C7.39394 7.52576 7.4311 7.43576 7.50658 7.29176C7.5809 7.14834 7.54374 7.02176 7.48742 6.91434C7.4311 6.80576 6.984 5.74434 6.79645 5.31293C6.61529 4.89254 6.43065 4.94886 6.29303 4.94189C6.16239 4.93609 6.01374 4.93434 5.86335 4.93434C5.71529 4.93434 5.472 4.98834 5.26645 5.20434C5.06148 5.42034 4.48258 5.94176 4.48258 7.00318C4.48258 8.06518 5.28503 9.0906 5.3971 9.2346C5.50916 9.37802 6.97645 11.5572 9.22297 12.492C9.75716 12.7132 10.1741 12.8462 10.4998 12.9461C11.0363 13.1104 11.5246 13.0866 11.9102 13.0314C12.3399 12.9693 13.2352 12.51 13.421 12.0066C13.608 11.5032 13.608 11.0712 13.5523 10.9812C13.4977 10.8912 13.3479 10.8372 13.1237 10.7286V10.7286Z" fill="white"/>
</svg>
